<svg xmlns="http://www.w3.org/2000/svg" viewBox="0 0 50 50">
  <path d="M30.90625 0.96875C30.863281 0.976563 30.820313 0.988281 30.78125 1C30.316406 1.105469 29.988281 1.523438 30 2L30 19.5625L26.71875 16.28125C26.511719 16.058594 26.210938 15.945313 25.90625 15.96875C25.863281 15.976563 25.820313 15.988281 25.78125 16C25.40625 16.066406 25.105469 16.339844 25 16.703125C24.894531 17.070313 25.003906 17.460938 25.28125 17.71875L30.28125 22.71875L31 23.40625L31.71875 22.71875L36.71875 17.71875C37.117188 17.320313 37.117188 16.679688 36.71875 16.28125C36.320313 15.882813 35.679688 15.882813 35.28125 16.28125L32 19.5625L32 2C32.011719 1.710938 31.894531 1.433594 31.6875 1.238281C31.476563 1.039063 31.191406 0.941406 30.90625 0.96875 Z M 1.71875 2C1.6875 2.007813 1.65625 2.019531 1.625 2.03125C1.613281 2.03125 1.605469 2.027344 1.59375 2.03125C1.574219 2.039063 1.550781 2.050781 1.53125 2.0625C0.652344 2.273438 0 3.058594 0 4C0 5.105469 0.894531 6 2 6C3.105469 6 4 5.105469 4 4L8.65625 4C9.902344 4 10.550781 4.257813 11.03125 4.6875C11.503906 5.113281 11.886719 5.832031 12.21875 6.9375L20.21875 39.21875C20.519531 40.363281 20.820313 41.542969 21.65625 42.5C22.003906 42.898438 22.441406 43.222656 22.96875 43.46875C22.382813 44.164063 22 45.027344 22 46C22 48.199219 23.800781 50 26 50C28.199219 50 30 48.199219 30 46C30 45.265625 29.785156 44.59375 29.4375 44L35.5625 44C35.214844 44.59375 35 45.265625 35 46C35 48.199219 36.800781 50 39 50C41.199219 50 43 48.199219 43 46C43 44.972656 42.582031 44.054688 41.9375 43.34375C42.050781 43.039063 42.003906 42.695313 41.820313 42.429688C41.632813 42.160156 41.328125 42 41 42L25.71875 42C24.175781 42 23.546875 41.671875 23.125 41.1875C22.707031 40.707031 22.453125 39.867188 22.15625 38.75L22.15625 38.71875L21.46875 36L39.8125 36C40.230469 36 40.609375 35.738281 40.75 35.34375L47.9375 16.34375C48.070313 16.007813 48.011719 15.628906 47.785156 15.351563C47.558594 15.074219 47.199219 14.9375 46.84375 15C46.480469 15.058594 46.183594 15.308594 46.0625 15.65625L39.125 34L21 34L14.15625 6.46875C14.15625 6.449219 14.15625 6.425781 14.15625 6.40625C13.773438 5.117188 13.277344 4 12.375 3.1875C11.472656 2.375 10.203125 2 8.65625 2L2 2C1.96875 2 1.9375 2 1.90625 2C1.875 2 1.84375 2 1.8125 2C1.78125 2 1.75 2 1.71875 2 Z M 26 44C27.117188 44 28 44.882813 28 46C28 47.117188 27.117188 48 26 48C24.882813 48 24 47.117188 24 46C24 44.882813 24.882813 44 26 44 Z M 39 44C40.117188 44 41 44.882813 41 46C41 47.117188 40.117188 48 39 48C37.882813 48 37 47.117188 37 46C37 44.882813 37.882813 44 39 44Z" fill="#5B5B5B" />
</svg>