<svg xmlns="http://www.w3.org/2000/svg" viewBox="0 0 64 64">
  <path d="M13.617188 4C12.855469 4 12.167969 4.425781 11.828125 5.105469L10.382813 8L8.207031 8C6.691406 8 5.375 9.078125 5.140625 10.503906C5 11.382813 5.246094 12.269531 5.816406 12.941406C6.179688 13.371094 6.660156 13.667969 7.183594 13.839844L11.921875 59.3125C12.078125 60.84375 13.359375 62 14.902344 62L40.726563 62C42.136719 63.242188 43.980469 64 46 64C50.410156 64 54 60.410156 54 56C54 52.796875 52.105469 50.035156 49.378906 48.761719L53.015625 13.84375C53.464844 13.695313 53.878906 13.460938 54.222656 13.113281C54.789063 12.546875 55.101563 11.792969 55.097656 10.992188C55.097656 10.152344 55.042969 9.425781 55.011719 9.0625C54.996094 8.910156 54.972656 8.761719 54.933594 8.613281C54.253906 5.898438 51.824219 4 49.027344 4 Z M 13.617188 6L49.027344 6C50.90625 6 52.539063 7.273438 52.980469 9.019531L52.996094 9.101563C53.007813 9.152344 53.015625 9.203125 53.019531 9.25C53.050781 9.574219 53.101563 10.234375 53.101563 10.992188C53.101563 11.257813 52.996094 11.511719 52.808594 11.703125C52.617188 11.894531 52.367188 12 52.101563 12L8.101563 12C7.808594 12 7.53125 11.871094 7.339844 11.644531C7.148438 11.417969 7.066406 11.128906 7.117188 10.824219C7.191406 10.363281 7.667969 10 8.207031 10L11.621094 10L11.65625 9.929688C11.761719 9.96875 11.878906 10 12 10L43 10C43.550781 10 44 9.550781 44 9C44 8.449219 43.550781 8 43 8L12.617188 8 Z M 47 8C46.449219 8 46 8.449219 46 9C46 9.550781 46.449219 10 47 10L50 10C50.550781 10 51 9.550781 51 9C51 8.449219 50.550781 8 50 8 Z M 9.210938 14L50.988281 14L47.4375 48.136719C46.96875 48.050781 46.492188 48 46 48C41.589844 48 38 51.589844 38 56C38 57.457031 38.398438 58.820313 39.082031 60L14.902344 60C14.386719 60 13.960938 59.613281 13.90625 59.105469 Z M 27 18C26.449219 18 26 18.449219 26 19C26 19.550781 26.449219 20 27 20L33 20C33.550781 20 34 19.550781 34 19C34 18.449219 33.550781 18 33 18 Z M 30.097656 26.683594C29.058594 26.703125 28.132813 27.183594 27.574219 28.042969L26.636719 29.476563C26.335938 29.9375 26.464844 30.558594 26.925781 30.859375C27.390625 31.160156 28.007813 31.03125 28.3125 30.566406L29.25 29.136719C29.4375 28.84375 29.746094 28.640625 30.089844 28.683594C30.4375 28.683594 30.742188 28.851563 30.925781 29.140625L34.234375 34.300781L32.1875 33.910156C31.648438 33.804688 31.125 34.160156 31.019531 34.703125C30.914063 35.246094 31.269531 35.769531 31.8125 35.875L36.078125 36.691406C36.140625 36.703125 36.203125 36.707031 36.265625 36.707031C36.738281 36.707031 37.15625 36.375 37.25 35.894531L38.066406 31.628906C38.171875 31.089844 37.816406 30.566406 37.269531 30.460938C36.730469 30.359375 36.207031 30.710938 36.101563 31.253906L35.769531 32.984375L32.609375 28.0625C32.058594 27.203125 31.121094 26.6875 30.097656 26.683594 Z M 25.863281 31.613281C25.699219 31.609375 25.539063 31.640625 25.390625 31.707031L21.386719 32.472656C20.84375 32.578125 20.488281 33.101563 20.59375 33.644531C20.695313 34.1875 21.21875 34.542969 21.761719 34.4375L23.628906 34.078125L20.183594 39.359375C19.578125 40.28125 19.53125 41.457031 20.054688 42.425781C20.582031 43.398438 21.59375 44 22.695313 44L25.101563 44C25.652344 44 26.101563 43.550781 26.101563 43C26.101563 42.449219 25.652344 42 25.101563 42L22.695313 42C22.15625 42 21.902344 41.632813 21.8125 41.476563C21.730469 41.320313 21.5625 40.902344 21.859375 40.453125L25.308594 35.171875L25.675781 37.09375C25.765625 37.574219 26.1875 37.90625 26.65625 37.90625C26.71875 37.90625 26.78125 37.898438 26.84375 37.886719C27.386719 37.78125 27.742188 37.261719 27.640625 36.71875L26.824219 32.453125C26.765625 32.164063 26.589844 31.9375 26.359375 31.796875C26.351563 31.785156 26.347656 31.773438 26.332031 31.765625C26.1875 31.671875 26.027344 31.621094 25.863281 31.613281 Z M 37.78125 37.261719C37.65625 37.285156 37.53125 37.332031 37.414063 37.40625C36.949219 37.703125 36.8125 38.324219 37.109375 38.789063L38.183594 40.460938C38.472656 40.910156 38.304688 41.324219 38.21875 41.480469C38.132813 41.636719 37.875 42 37.34375 42L30.894531 42L32.261719 40.636719C32.652344 40.246094 32.652344 39.613281 32.261719 39.222656C31.871094 38.832031 31.238281 38.832031 30.847656 39.222656L27.777344 42.292969C27.683594 42.386719 27.613281 42.496094 27.5625 42.617188C27.460938 42.863281 27.460938 43.140625 27.5625 43.382813C27.613281 43.503906 27.683594 43.613281 27.777344 43.707031L30.847656 46.777344C31.042969 46.972656 31.296875 47.070313 31.554688 47.070313C31.8125 47.070313 32.066406 46.972656 32.261719 46.777344C32.652344 46.386719 32.652344 45.753906 32.261719 45.363281L30.894531 44L37.34375 44C38.457031 44 39.441406 43.417969 39.972656 42.4375C40.507813 41.460938 40.46875 40.320313 39.867188 39.378906L38.796875 37.707031C38.574219 37.359375 38.167969 37.195313 37.78125 37.261719 Z M 46 50C49.308594 50 52 52.691406 52 56C52 59.308594 49.308594 62 46 62C42.691406 62 40 59.308594 40 56C40 52.691406 42.691406 50 46 50 Z M 16.101563 54C15.550781 54 15.101563 54.449219 15.101563 55L15.101563 57C15.101563 57.550781 15.546875 58 16.101563 58C16.652344 58 17.101563 57.550781 17.101563 57L17.101563 55C17.101563 54.449219 16.652344 54 16.101563 54 Z M 21.101563 54C20.550781 54 20.101563 54.449219 20.101563 55L20.101563 57C20.101563 57.550781 20.550781 58 21.101563 58C21.652344 58 22.101563 57.550781 22.101563 57L22.101563 55C22.101563 54.449219 21.652344 54 21.101563 54 Z M 26.101563 54C25.550781 54 25.101563 54.449219 25.101563 55L25.101563 57C25.101563 57.550781 25.550781 58 26.101563 58C26.652344 58 27.101563 57.550781 27.101563 57L27.101563 55C27.101563 54.449219 26.652344 54 26.101563 54 Z M 31.101563 54C30.550781 54 30.101563 54.449219 30.101563 55L30.101563 57C30.101563 57.550781 30.550781 58 31.101563 58C31.652344 58 32.101563 57.550781 32.101563 57L32.101563 55C32.101563 54.449219 31.652344 54 31.101563 54 Z M 36.101563 54C35.550781 54 35.101563 54.449219 35.101563 55L35.101563 57C35.101563 57.550781 35.550781 58 36.101563 58C36.652344 58 37.101563 57.550781 37.101563 57L37.101563 55C37.101563 54.449219 36.652344 54 36.101563 54 Z M 46 54C44.894531 54 44 54.894531 44 56C44 57.105469 44.894531 58 46 58C47.105469 58 48 57.105469 48 56C48 54.894531 47.105469 54 46 54Z" fill="#5B5B5B" />
</svg>