<?xml version="1.0" encoding="utf-8"?>
<svg xmlns="http://www.w3.org/2000/svg" viewBox="0 0 100 100" width="400" height="400">
  <path fill="#b77748" d="M54,72c0,1,3,6.5,3,6.5s1,0.5,2,0.5c3,0,4-1,4-1s2-7,4-9" />
  <path fill="#f15b6c" d="M78.5,16.5c-0.379,0-0.738,0.078-1.071,0.206C77.475,16.478,77.5,16.242,77.5,16c0-1.933-1.567-3.5-3.5-3.5c-1.207,0-2.272,0.612-2.901,1.542c-0.91-0.947-2.182-1.542-3.599-1.542c-2.761,0-5,2.239-5,5s2.239,5,5,5c2.231,0,9.343,0,11,0s3-1.343,3-3S80.157,16.5,78.5,16.5z" />
  <path fill="#c17d48" d="M78.197,31.104c0.482-1.066,0.78-2.354,0.802-3.92c0.059-4.285-3.119-7.908-7.397-8.166c-8.866-0.534-13.803,10.822-16.356,17.034c-0.701,1.705-2.28,2.914-4.117,3.06C44.588,39.63,38.738,41.938,34,46c-4,0-10-15-17-15c0,0-3.125,9.273-4.938,20.5c-0.276,1.711,0.577,3.404,2.117,4.201C19.123,58.261,32,62,32,62c0,3,4.925,11.756,11,14c0,1,0,2,0,2c2,2,6,2,6,2s6.002-8,9.5-8C69.822,72,79,62.822,79,51.5c0-2.322-0.374-4.553-1.071-6.634C76.422,40.363,76.24,35.431,78.197,31.104z" />
  <path fill="#f15b6c" d="M80,36c0-1.171-0.5-2.5-1-3.5L75.5,31c0,0-2,2.791-2,5s1.455,4,3.25,4S80,38.209,80,36z" />
  <path fill="#fef6aa" d="M79,26.5L75.5,31l3.85,1.5c0,0,1.112-0.508,3.3-0.5c1.079,0.004,2.639,0.395,3.85,1C84.667,27.5,79,26.5,79,26.5z" />
  <path fill="#eaa871" d="M60.5,41.5c5,0,9,4.029,9,9c0,8.5-8.5,11-12.5,11H35.5l3-3h-3l3-3h-3C35.5,55.5,48.5,41.5,60.5,41.5z" />
  <path fill="#1f212b" d="M73.5 25A1.5 1.5 0 1 0 73.5 28 1.5 1.5 0 1 0 73.5 25zM29.606 48.438c-.244-.074-.515-.214-.806-.417-.227-.159-.539-.102-.696.125-.158.227-.102.539.125.696.383.266.739.447 1.088.552.048.015.097.021.145.021.215 0 .414-.139.479-.355C30.021 48.796 29.871 48.517 29.606 48.438z" />
  <path fill="#1f212b" d="M86.975,32.842c-1.486-4.46-5.296-6.089-7.019-6.612c-0.105-1.174-0.431-2.281-0.933-3.282C80.703,22.693,82,21.251,82,19.5c0-2.096-1.896-3.788-4-3.461c0-0.013,0-0.026,0-0.039c0-2.206-1.794-4-4-4c-1.134,0-2.202,0.479-2.955,1.304C70.053,12.459,68.812,12,67.5,12c-3.032,0-5.5,2.467-5.5,5.5c0,1.338,0.48,2.595,1.335,3.584c-4.666,4.011-7.514,10.937-9.014,14.589c-0.572,1.393-1.825,2.329-3.271,2.442c-6.702,0.531-12.537,2.829-17.353,6.833c-1.264-0.405-3.291-3.098-5.096-5.496C25.266,35.021,21.485,30,17,30c-0.429,0-0.811,0.274-0.948,0.681c-0.031,0.093-3.172,9.48-4.977,20.66c-0.346,2.142,0.717,4.251,2.644,5.249c4.387,2.271,14.628,5.373,17.347,6.178C31.669,66.591,36.33,74.153,42,76.672V78c0,0.265,0.105,0.52,0.293,0.707c0.843,0.843,1.961,1.375,3.043,1.712l0.596,4.173c-0.888,0.258-1.371,0.509-1.411,0.53c-0.482,0.263-0.659,0.864-0.399,1.349c0.259,0.485,0.863,0.668,1.351,0.411C45.489,86.873,47.184,86,50.5,86c3.316,0,5.011,0.873,5.021,0.878C55.673,86.961,55.837,87,55.999,87c0.354,0,0.697-0.188,0.879-0.521c0.265-0.485,0.086-1.092-0.399-1.357C56.395,85.076,54.377,84,50.5,84c-0.993,0-1.86,0.072-2.608,0.177l-0.472-3.302C48.302,80.996,48.933,81,49,81c0.315,0,0.611-0.148,0.8-0.4c1.144-1.524,2.853-3.507,4.539-5.067c0.82,1.677,1.736,3.359,1.783,3.446c0.098,0.179,0.248,0.324,0.431,0.416C56.677,79.457,57.799,80,59,80c0.393,0,0.754-0.017,1.09-0.045l0.76,2.662c-0.832,0.249-1.29,0.484-1.329,0.505c-0.485,0.265-0.664,0.872-0.399,1.357c0.265,0.484,0.873,0.663,1.356,0.399C60.495,84.869,62.181,84,65.5,84c3.316,0,5.011,0.873,5.021,0.878C70.673,84.961,70.837,85,70.999,85c0.354,0,0.697-0.188,0.879-0.521c0.265-0.485,0.086-1.092-0.399-1.357C71.395,83.076,69.377,82,65.5,82c-1.033,0-1.923,0.079-2.69,0.192l-0.746-2.612c1.024-0.328,1.518-0.746,1.644-0.872c0.12-0.12,0.208-0.269,0.255-0.432c0.012-0.042,1.198-4.164,2.609-6.861C74.436,68.215,80,60.5,80,51.5c0-2.389-0.378-4.728-1.123-6.951c-0.478-1.429-0.799-2.869-0.969-4.291C79.407,39.669,80.5,37.994,80.5,36c0-1.08-0.373-2.205-0.77-3.109c0.369-0.125,1.332-0.391,2.871-0.391c0.017,0,0.032,0,0.048,0c1.028,0.004,2.52,0.393,3.628,0.947c0.071,0.035,0.147,0.053,0.224,0.053c0.118,0,0.234-0.042,0.327-0.122C86.98,33.245,87.038,33.034,86.975,32.842z M63,17.5c0-2.481,2.019-4.5,4.5-4.5c1.229,0,2.379,0.493,3.239,1.388c0.104,0.109,0.251,0.165,0.403,0.151c0.15-0.013,0.287-0.093,0.371-0.218C72.073,13.494,73.003,13,74,13c1.654,0,3,1.346,3,3c0,0.205-0.021,0.408-0.062,0.605c-0.036,0.179,0.027,0.364,0.167,0.482c0.14,0.12,0.332,0.152,0.503,0.085c1.695-0.651,3.393,0.655,3.392,2.327c0,1.378-1.121,2.5-2.5,2.5h-0.023c-1.503-2.268-3.98-3.809-6.814-3.979c-2.903-0.177-5.404,0.815-7.548,2.435C63.401,19.643,63,18.606,63,17.5z M62.138,77.387C61.774,77.594,60.83,78,59,78c-0.453,0-0.96-0.154-1.284-0.279c-0.339-0.631-1.142-2.146-1.798-3.519C56.902,73.47,57.808,73,58.5,73c1.891,0,3.717-0.27,5.465-0.731C63.076,74.355,62.387,76.556,62.138,77.387z M58.5,71c-3.512,0-8.562,6.158-9.978,7.979c-0.965-0.066-3.166-0.334-4.522-1.424V76c0-0.418-0.261-0.793-0.653-0.938C37.7,72.977,33,64.531,33,62c0-0.445-0.294-0.836-0.721-0.96c-0.128-0.037-12.84-3.741-17.64-6.227c-1.159-0.6-1.797-1.867-1.589-3.154c1.021-6.328,2.476-12.07,3.535-15.828c2.435,1.707,4.748,4.774,6.817,7.522c1.134,1.507,2.206,2.93,3.212,4.021c0.098,0.106,0.232,0.161,0.367,0.161c0.122,0,0.243-0.044,0.339-0.133c0.203-0.187,0.215-0.503,0.028-0.707c-0.972-1.053-2.029-2.457-3.147-3.943c-2.191-2.911-4.651-6.158-7.33-7.921c0.354-1.222,0.646-2.167,0.836-2.767c3.265,0.58,6.589,4.996,9.296,8.592C29.671,44.2,31.779,47,34,47c0.239,0,0.47-0.085,0.651-0.241c4.553-3.904,10.124-6.142,16.556-6.65c2.201-0.174,4.104-1.583,4.963-3.677c2.081-5.063,6.962-16.893,15.371-16.416c3.492,0.21,6.201,2.966,6.441,6.552c0.01,0.144,0.009,0.283,0.011,0.411l-2.888,3.713c-0.002,0.003-0.002,0.006-0.004,0.009c-0.002,0.003-0.005,0.004-0.008,0.007C75.008,30.828,73,33.657,73,36c0,2.132,1.245,3.914,2.907,4.375c0.183,1.595,0.539,3.211,1.074,4.809C77.657,47.203,78,49.328,78,51.5C78,62.252,69.252,71,58.5,71z M76.75,39.5C75.233,39.5,74,37.93,74,36c0-1.609,1.195-3.621,1.692-4.389l2.862,1.115C78.908,33.435,79.5,34.799,79.5,36C79.5,37.93,78.267,39.5,76.75,39.5z M82.652,31.5c-0.018,0-0.034,0-0.052,0c-1.728,0-2.819,0.311-3.25,0.464l-3.044-1.186l2.894-3.72c1.039,0.263,4.638,1.412,6.385,5.017C84.581,31.721,83.501,31.503,82.652,31.5z" />
  <path fill="#1f212b" d="M73.5 25A1.5 1.5 0 1 0 73.5 28A1.5 1.5 0 1 0 73.5 25Z" />
  <g>
    <path fill="#1f212b" d="M57.5 62h-22c-.202 0-.385-.122-.462-.309-.078-.187-.035-.402.108-.545L37.293 59H35.5c-.202 0-.385-.122-.462-.309-.078-.187-.035-.402.108-.545L37.293 56H35.5c-.202 0-.385-.122-.462-.309-.078-.187-.035-.402.108-.545l3-3c.195-.195.512-.195.707 0s.195.512 0 .707L36.707 55H38.5c.202 0 .385.122.462.309.078.187.035.402-.108.545L36.707 58H38.5c.202 0 .385.122.462.309.078.187.035.402-.108.545L36.707 61H57.5C66.104 61 69 53.79 69 50.5c0-3.251-1.81-6.169-4.723-7.617-.247-.123-.348-.423-.226-.67.124-.248.426-.348.671-.225C67.978 43.605 70 46.867 70 50.5 70 59.104 61.416 62 57.5 62zM62.5 42.223c-.036 0-.073-.004-.11-.012C61.772 42.071 61.138 42 60.5 42c-.276 0-.5-.224-.5-.5s.224-.5.5-.5c.712 0 1.422.079 2.11.235.27.061.438.329.377.599C62.935 42.066 62.729 42.223 62.5 42.223z" />
  </g>
</svg>