<svg xmlns="http://www.w3.org/2000/svg" viewBox="0 0 80 80"><path fill="#f78f8f" d="M52,13.5c-3,0-5.5-2.5-5.5-5.5S49,2.5,52,2.5c1.2,0,2.4,0.4,3.4,1.2l0.3,0.3L56,3.7 c0.8-0.7,1.9-1.2,3-1.2c2.1,0,4,1.5,4.4,3.6l0.1,0.4H64c1.9,0,3.5,1.6,3.5,3.5s-1.6,3.5-3.5,3.5H52z"/><path fill="#c74343" d="M59,3c1.9,0,3.5,1.3,3.9,3.2L63.1,7h0.8H64c1.7,0,3,1.3,3,3s-1.3,3-3,3H52c-2.8,0-5-2.2-5-5 s2.2-5,5-5c1.1,0,2.2,0.4,3.1,1.1l0.7,0.5L56.3,4C57.1,3.4,58,3,59,3 M59,2c-1.3,0-2.4,0.5-3.3,1.3C54.7,2.5,53.4,2,52,2 c-3.3,0-6,2.7-6,6s2.7,6,6,6h12c2.2,0,4-1.8,4-4s-1.8-4-4-4h-0.1C63.4,3.7,61.4,2,59,2L59,2z"/><path fill="#a16a4a" d="M64 16L76 20 64 24zM34 76L32 76 36 66 38 66zM51 76L49 76 45 66 47 66z"/><path fill="#a16a4a" d="M38 79c-.3 0-.5-.1-.7-.3C36.2 77.6 34.6 77 33 77c-1.6 0-3.2.6-4.3 1.7-.4.4-1 .4-1.4 0-.4-.4-.4-1 0-1.4 1.5-1.5 3.5-2.3 5.7-2.3 2.2 0 4.2.8 5.7 2.3.4.4.4 1 0 1.4C38.5 78.9 38.3 79 38 79zM55 79c-.3 0-.5-.1-.7-.3C53.2 77.6 51.6 77 50 77c-1.6 0-3.1.6-4.2 1.7-.4.4-1 .4-1.4 0-.4-.4-.4-1 0-1.4 1.5-1.5 3.5-2.3 5.6-2.3 2.2 0 4.2.8 5.7 2.3.4.4.4 1 0 1.4C55.5 78.9 55.3 79 55 79z"/><path fill="#fff1e8" d="M40,67.5c-14.3,0-27.9-8.9-33.8-12.7c-0.4-0.3-0.8-0.5-1.1-0.7c1.7-0.5,4.7-1.6,5-1.7l0.7-0.3l-6-6 c1.2-0.4,3.6-1.2,4.5-1.5c0.4-0.1,0.7-0.2,0.7-0.2l0.7-0.3L10,43.3c-0.9-0.9-3.3-3.4-4.7-4.8H24c14.9,0,22.5-5.6,22.5-16.5v-3 c0-4.7,4.7-8.5,10.5-8.5s10.5,3.8,10.5,8.5c0,1.5-0.2,2.7-0.9,3.7c-0.7,0.9-1.1,2.7-1.1,3.3v2c0,1.1,0.5,3.1,1.2,5.7 c1.2,4.3,2.8,10.2,2.8,15.3c0,11.6-10.3,18.5-27.5,18.5H40z"/><path fill="#a16a4a" d="M57,11c5.5,0,10,3.6,10,8c0,1.4-0.1,2.5-0.8,3.4c-0.7,1-1.2,2.8-1.2,3.6v2c0,1.2,0.5,3.1,1.3,5.8 C67.4,38.1,69,44,69,49c0,6-2.7,10.7-8,13.8C56.3,65.5,49.7,67,42,67h-2c-14.2,0-27.7-8.8-33.5-12.6c-0.1,0-0.1-0.1-0.2-0.1 c1.7-0.6,3.8-1.3,4-1.4l1.4-0.6l-1.1-1.1l-0.5-0.5l-4.4-4.4c1.2-0.4,3-1,3.7-1.2c0.5-0.1,0.8-0.2,0.8-0.3l1.5-0.5l-1.1-1.1 l-0.4-0.4c-1.2-1.2-2.7-2.7-3.9-3.9H22h2c19,0,23-9.2,23-17v-3C47,14.6,51.5,11,57,11 M57,10c-6.1,0-11,4-11,9c0,0.5,0,2.9,0,3 c0,12.2-9.8,16-22,16h-2c-7.1,0-14.7,0-18,0c0.9,0.8,5.8,5.8,6,6c-0.2,0.1-5.9,1.9-6,2c0.2,0.2,5.8,5.8,6,6c-0.4,0.2-5.6,1.9-6,2 c4,2.4,19.5,14,36,14h2c14.7,0,28-5.2,28-19c0-8.2-4-18.2-4-21c0-0.7,0-1.3,0-2c0-0.6,0.4-2.2,1-3c0.9-1.1,1-2.5,1-4 C68,14,63.1,10,57,10L57,10z"/><path fill="#36404d" d="M59 16A3 3 0 1 0 59 22A3 3 0 1 0 59 16Z"/><path fill="#a16a4a" d="M30.7,66.9c-0.3,0-0.5-0.2-0.5-0.5s0.2-0.5,0.5-0.5c12.1,0,19.3-8.7,19.3-23.4c0-0.3,0.2-0.5,0.5-0.5 s0.5,0.2,0.5,0.5C51,57.7,43.4,66.9,30.7,66.9z"/></svg>