<svg xmlns="http://www.w3.org/2000/svg" viewBox="0 0 80 80">
  <path d="M40 6C25.688958 6 14 16.837971 14 30.271484L14 37L10.5 37C8.5788117 37 7 38.578812 7 40.5C7 42.249966 8.3145673 43.701829 10 43.949219L10 46.339844C10 56.160699 16.798907 67.898174 26.943359 71.929688 A 1.0001 1.0001 0 0 0 27.3125 72L52.6875 72 A 1.0001 1.0001 0 0 0 53.056641 71.929688C63.203982 67.898276 70 56.162455 70 46.339844L70 43.949219C71.685433 43.701829 73 42.249966 73 40.5C73 38.578812 71.421188 37 69.5 37L66 37L66 30.273438C66 16.838969 54.311042 6 40 6 z M 40 8C53.304958 8 64 17.999904 64 30.273438L64 37L57.917969 37C58.190229 34.917927 57.726547 32.721393 56.433594 30.849609L56.433594 30.847656L56.431641 30.847656C54.667454 28.296117 51.789862 27.103873 48.904297 27.166016C48.990747 24.41081 48.522973 21.690727 46.589844 20.134766C45.535865 19.286051 44.275125 18.963074 42.955078 18.996094C41.635032 19.029114 40.256447 19.419074 38.966797 19.994141C36.387496 21.144273 34.000155 23.073001 32.630859 25.130859C32.514934 25.30543 32.420994 25.483034 32.320312 25.660156C31.978075 25.550787 31.633534 25.454326 31.287109 25.369141C29.895873 25.027038 28.445456 24.888693 27.111328 25.089844C25.7772 25.290995 24.557666 25.83115 23.625 26.851562C22.353085 28.243786 21.945482 30.180307 22.003906 32.167969C22.05103 33.77115 22.457818 35.419576 23.001953 37L16 37L16 30.271484C16 17.998997 26.695042 8 40 8 z M 42.923828 21.009766C43.879313 20.976471 44.713415 21.192075 45.335938 21.693359C46.514825 22.642237 47.037108 24.86493 46.931641 27.365234C45.987077 27.608901 45.050208 27.929689 44.201172 28.507812C42.803215 29.459613 41.472079 30.931719 40.404297 32.625C39.998751 31.437692 39.367286 30.320602 38.470703 29.361328C37.382043 28.197326 35.875461 27.167901 34.201172 26.396484C34.233411 26.34487 34.261626 26.288467 34.294922 26.238281L34.296875 26.236328C35.376045 24.6157 37.561711 22.810024 39.78125 21.820312C40.891475 21.325254 41.968343 21.04306 42.923828 21.009766 z M 28.25 27.003906C29.042234 26.984321 29.909146 27.091329 30.808594 27.3125C33.20712 27.902294 35.685421 29.310567 37.009766 30.726562C38.583846 32.410708 39.122998 34.756722 38.826172 37L25.130859 37C24.512075 35.397018 24.049452 33.658874 24.003906 32.109375C23.954826 30.439787 24.322479 29.053949 25.101562 28.201172C25.672897 27.576085 26.500378 27.20638 27.484375 27.066406C27.730374 27.031413 27.985922 27.010435 28.25 27.003906 z M 49.105469 28.996094C51.285067 28.994026 53.440792 30.039152 54.787109 31.986328C55.847745 33.522664 56.183711 35.316695 55.896484 37L40.884766 37C40.923959 36.632856 40.940444 36.263262 40.941406 35.894531C41.922126 33.545712 43.739873 31.242143 45.326172 30.162109C46.481246 29.3756 47.79771 28.997335 49.105469 28.996094 z M 10.5 39L69.5 39C70.340812 39 71 39.659188 71 40.5C71 41.340812 70.340812 42 69.5 42L10.5 42C9.6591883 42 9 41.340812 9 40.5C9 39.659188 9.6591883 39 10.5 39 z M 12 44L18.091797 44L18.041016 44.283203L18.652344 44.9375L19 45L19.800781 44.597656L19.908203 44L27.091797 44L27.041016 44.283203L27.652344 44.9375L28 45L28.800781 44.597656L28.908203 44L39.091797 44L39.041016 44.283203L39.652344 44.9375L40 45L40.800781 44.597656L40.908203 44L51.091797 44L51.041016 44.283203L51.652344 44.9375L52 45L52.800781 44.597656L52.908203 44L61.091797 44L61.041016 44.283203L61.652344 44.9375L62 45L62.800781 44.597656L62.908203 44L68 44L68 46.339844C68 47.940723 67.780519 49.618144 67.378906 51.3125L67.199219 51.402344L67.041016 52.283203L67.101562 52.347656C65.974727 56.355693 63.825027 60.385432 60.939453 63.697266L60.347656 63.0625L60 63L59.199219 63.402344L59.041016 64.283203L59.652344 64.9375L59.773438 64.958984C57.633437 67.124401 55.165406 68.896847 52.455078 70L27.544922 70C24.814973 68.8885 22.330713 67.09834 20.179688 64.910156L20.800781 64.597656L20.958984 63.716797L20.347656 63.0625L20 63L19.199219 63.402344L19.132812 63.777344C16.18377 60.418442 13.99427 56.3088 12.867188 52.230469L12.958984 51.716797L12.632812 51.367188C12.222299 49.653688 12 47.958168 12 46.339844L12 44 z M 19.785156 46.921875L18.982422 47.324219L18.826172 48.205078L19.4375 48.859375L19.785156 48.921875L20.585938 48.521484L20.744141 47.638672L20.130859 46.984375L19.785156 46.921875 z M 61.214844 46.921875L60.414062 47.324219L60.255859 48.205078L60.869141 48.859375L61.214844 48.921875L62.017578 48.521484L62.173828 47.638672L61.5625 46.984375L61.214844 46.921875 z M 28 47L27.199219 47.402344L27.041016 48.283203L27.652344 48.9375L28 49L28.800781 48.597656L28.958984 47.716797L28.347656 47.0625L28 47 z M 40 47L39.199219 47.402344L39.041016 48.283203L39.652344 48.9375L40 49L40.800781 48.597656L40.958984 47.716797L40.347656 47.0625L40 47 z M 52 47L51.199219 47.402344L51.041016 48.283203L51.652344 48.9375L52 49L52.800781 48.597656L52.958984 47.716797L52.347656 47.0625L52 47 z M 16 51L15.199219 51.402344L15.041016 52.283203L15.652344 52.9375L16 53L16.800781 52.597656L16.958984 51.716797L16.347656 51.0625L16 51 z M 20 51L19.199219 51.402344L19.041016 52.283203L19.652344 52.9375L20 53L20.800781 52.597656L20.958984 51.716797L20.347656 51.0625L20 51 z M 24 51L23.199219 51.402344L23.041016 52.283203L23.652344 52.9375L24 53L24.800781 52.597656L24.958984 51.716797L24.347656 51.0625L24 51 z M 28 51L27.199219 51.402344L27.041016 52.283203L27.652344 52.9375L28 53L28.800781 52.597656L28.958984 51.716797L28.347656 51.0625L28 51 z M 32 51L31.199219 51.402344L31.041016 52.283203L31.652344 52.9375L32 53L32.800781 52.597656L32.958984 51.716797L32.347656 51.0625L32 51 z M 36 51L35.199219 51.402344L35.041016 52.283203L35.652344 52.9375L36 53L36.800781 52.597656L36.958984 51.716797L36.347656 51.0625L36 51 z M 40 51L39.199219 51.402344L39.041016 52.283203L39.652344 52.9375L40 53L40.800781 52.597656L40.958984 51.716797L40.347656 51.0625L40 51 z M 44 51L43.199219 51.402344L43.041016 52.283203L43.652344 52.9375L44 53L44.800781 52.597656L44.958984 51.716797L44.347656 51.0625L44 51 z M 48 51L47.199219 51.402344L47.041016 52.283203L47.652344 52.9375L48 53L48.800781 52.597656L48.958984 51.716797L48.347656 51.0625L48 51 z M 52 51L51.199219 51.402344L51.041016 52.283203L51.652344 52.9375L52 53L52.800781 52.597656L52.958984 51.716797L52.347656 51.0625L52 51 z M 56 51L55.199219 51.402344L55.041016 52.283203L55.652344 52.9375L56 53L56.800781 52.597656L56.958984 51.716797L56.347656 51.0625L56 51 z M 60 51L59.199219 51.402344L59.041016 52.283203L59.652344 52.9375L60 53L60.800781 52.597656L60.958984 51.716797L60.347656 51.0625L60 51 z M 64 51L63.199219 51.402344L63.041016 52.283203L63.652344 52.9375L64 53L64.800781 52.597656L64.958984 51.716797L64.347656 51.0625L64 51 z M 21 55L20.199219 55.402344L20.041016 56.283203L20.652344 56.9375L21 57L21.800781 56.597656L21.958984 55.716797L21.347656 55.0625L21 55 z M 29 55L28.199219 55.402344L28.041016 56.283203L28.652344 56.9375L29 57L29.800781 56.597656L29.958984 55.716797L29.347656 55.0625L29 55 z M 40 55L39.199219 55.402344L39.041016 56.283203L39.652344 56.9375L40 57L40.800781 56.597656L40.958984 55.716797L40.347656 55.0625L40 55 z M 51 55L50.199219 55.402344L50.041016 56.283203L50.652344 56.9375L51 57L51.800781 56.597656L51.958984 55.716797L51.347656 55.0625L51 55 z M 59 55L58.199219 55.402344L58.041016 56.283203L58.652344 56.9375L59 57L59.800781 56.597656L59.958984 55.716797L59.347656 55.0625L59 55 z M 22.486328 58.714844L21.683594 59.115234L21.527344 59.998047L22.138672 60.652344L22.486328 60.714844L23.287109 60.3125L23.445312 59.429688L22.832031 58.775391L22.486328 58.714844 z M 30.486328 58.714844L29.683594 59.115234L29.527344 59.998047L30.138672 60.652344L30.486328 60.714844L31.287109 60.3125L31.445312 59.429688L30.832031 58.775391L30.486328 58.714844 z M 49.513672 58.714844L48.712891 59.115234L48.554688 59.998047L49.167969 60.652344L49.513672 60.714844L50.316406 60.3125L50.472656 59.429688L49.861328 58.775391L49.513672 58.714844 z M 57.513672 58.714844L56.712891 59.115234L56.554688 59.998047L57.167969 60.652344L57.513672 60.714844L58.316406 60.3125L58.472656 59.429688L57.861328 58.775391L57.513672 58.714844 z M 40 59L39.199219 59.402344L39.041016 60.283203L39.652344 60.9375L40 61L40.800781 60.597656L40.958984 59.716797L40.347656 59.0625L40 59 z M 24 63L23.199219 63.402344L23.041016 64.283203L23.652344 64.9375L24 65L24.800781 64.597656L24.958984 63.716797L24.347656 63.0625L24 63 z M 28 63L27.199219 63.402344L27.041016 64.283203L27.652344 64.9375L28 65L28.800781 64.597656L28.958984 63.716797L28.347656 63.0625L28 63 z M 32 63L31.199219 63.402344L31.041016 64.283203L31.652344 64.9375L32 65L32.800781 64.597656L32.958984 63.716797L32.347656 63.0625L32 63 z M 36 63L35.199219 63.402344L35.041016 64.283203L35.652344 64.9375L36 65L36.800781 64.597656L36.958984 63.716797L36.347656 63.0625L36 63 z M 40 63L39.199219 63.402344L39.041016 64.283203L39.652344 64.9375L40 65L40.800781 64.597656L40.958984 63.716797L40.347656 63.0625L40 63 z M 44 63L43.199219 63.402344L43.041016 64.283203L43.652344 64.9375L44 65L44.800781 64.597656L44.958984 63.716797L44.347656 63.0625L44 63 z M 48 63L47.199219 63.402344L47.041016 64.283203L47.652344 64.9375L48 65L48.800781 64.597656L48.958984 63.716797L48.347656 63.0625L48 63 z M 52 63L51.199219 63.402344L51.041016 64.283203L51.652344 64.9375L52 65L52.800781 64.597656L52.958984 63.716797L52.347656 63.0625L52 63 z M 56 63L55.199219 63.402344L55.041016 64.283203L55.652344 64.9375L56 65L56.800781 64.597656L56.958984 63.716797L56.347656 63.0625L56 63 z M 28 67 A 1 1 0 0 0 28 69 A 1 1 0 0 0 28 67 z M 33 67 A 1 1 0 0 0 33 69 A 1 1 0 0 0 33 67 z M 40 67L39.199219 67.402344L39.041016 68.283203L39.652344 68.9375L40 69L40.800781 68.597656L40.958984 67.716797L40.347656 67.0625L40 67 z M 47 67 A 1 1 0 0 0 47 69 A 1 1 0 0 0 47 67 z M 52 67 A 1 1 0 0 0 52 69 A 1 1 0 0 0 52 67 z" fill="#5B5B5B" />
</svg>