<svg xmlns="http://www.w3.org/2000/svg" viewBox="0 0 50 50">
  <path d="M15 2C12.250421 2 10 4.2504209 10 7C10 9.7495791 12.250421 12 15 12C17.749579 12 20 9.7495791 20 7C20 4.2504209 17.749579 2 15 2 z M 15 4C16.668699 4 18 5.3313011 18 7C18 8.6686989 16.668699 10 15 10C13.331301 10 12 8.6686989 12 7C12 5.3313011 13.331301 4 15 4 z M 10 12C8.75 12 7.607206 12.496328 6.7070312 13.302734C5.8068566 14.109141 5.1183003 15.203412 4.578125 16.486328C3.4977744 19.052161 3 22.404762 3 26L3 30.617188C3 33.57846 5.4215399 36 8.3828125 36L17.494141 36L18.746094 44.923828 A 1.0001 1.0001 0 0 0 18.748047 44.935547C19.018718 46.703326 20.606572 47.914331 22.355469 47.845703 A 1.0001 1.0001 0 0 0 22.587891 47.876953L22.585938 47.857422C22.638078 47.851822 22.685962 47.873294 22.738281 47.865234C24.637514 47.574436 25.960188 45.772469 25.667969 43.873047L24.003906 32.013672 A 1.0001 1.0001 0 0 0 24.001953 32.001953C23.8824 31.217125 23.497216 30.540024 22.982422 30.037109C22.905722 29.961669 22.862529 29.926196 22.878906 29.941406 A 1.0001 1.0001 0 0 0 22.863281 29.927734C22.795973 29.867652 22.695307 29.77519 22.554688 29.675781C21.984689 29.261019 21.272083 29 20.5 29L14 29L14 21.544922L16.533203 22.884766 A 1.0001 1.0001 0 0 0 16.542969 22.888672C17.150089 23.200789 18.236014 24 20 24L28 24C29.809239 24 31.258163 22.338518 30.960938 20.503906C30.714627 18.990639 29.344401 18 27.892578 18L20.898438 18L13.095703 13.085938C12.813342 12.891624 11.600894 12 10 12 z M 22.738281 47.865234L22.587891 47.876953 A 1.0001 1.0001 0 0 0 22.738281 47.865234 z M 10 14C10.805106 14 11.687252 14.544688 11.962891 14.734375 A 1.0001 1.0001 0 0 0 11.996094 14.755859L20.076172 19.845703 A 1.0001 1.0001 0 0 0 20.609375 20L27.892578 20C28.432755 20 28.912638 20.371486 28.986328 20.824219C29.095101 21.495607 28.620761 22 28 22L20 22C18.792842 22 18.346574 21.569111 17.466797 21.115234L17.457031 21.111328L13.466797 19.001953 A 1.0001 1.0001 0 0 0 12 19.886719L12 30 A 1.0001 1.0001 0 0 0 13 31L20.5 31C20.828374 31 21.123421 31.105175 21.380859 31.292969 A 1.0001 1.0001 0 0 0 21.400391 31.308594C21.410291 31.315394 21.455861 31.350944 21.533203 31.419922C21.565713 31.449572 21.601142 31.482001 21.576172 31.457031 A 1.0001 1.0001 0 0 0 21.583984 31.464844C21.818583 31.693812 21.973083 31.972177 22.023438 32.302734L22.023438 32.291016L23.689453 44.164062 A 1.0001 1.0001 0 0 0 23.691406 44.177734C23.819187 45.008312 23.266314 45.759517 22.435547 45.886719C21.604969 46.0145 20.851811 45.46358 20.724609 44.632812L19.353516 34.861328 A 1.0001 1.0001 0 0 0 18.363281 34L8.3828125 34C6.5020851 34 5 32.497915 5 30.617188L5 26C5 22.595238 5.5022256 19.447839 6.421875 17.263672C6.8816997 16.171588 7.4431432 15.328359 8.0429688 14.791016C8.6427939 14.253672 9.25 14 10 14 z M 28 26 A 1 1 0 0 0 27 27 A 1 1 0 0 0 28 28 A 1 1 0 0 0 29 27 A 1 1 0 0 0 28 26 z M 37.230469 28C35.3261 28 34.291925 29.055434 33.695312 29.697266C33.0987 30.339097 32.902624 30.700824 31.238281 30.623047 A 1.0001 1.0001 0 0 0 30.427734 32.269531C30.536614 32.39782 30.808709 32.714409 31.228516 32.982422C31.648323 33.250435 32.214492 33.489056 33.005859 33.667969C33.587201 33.799205 33.969917 33.809114 34.189453 33.835938C34.150763 34.203457 33.80677 34.909596 33.265625 35.798828C32.695282 36.736039 32 37.863515 32 39.267578C32 40.506044 32.610814 41.776851 33.802734 42.642578C34.810078 43.374241 36.21593 43.817042 38.001953 43.943359 A 1.0001 1.0001 0 0 0 38 44L38 46L35 46 A 1.0001 1.0001 0 1 0 35 48L39 48 A 1.0001 1.0001 0 0 0 40 47L40 44 A 1.0001 1.0001 0 0 0 39.998047 43.970703C44.620464 43.715484 47.249912 41.680849 48.849609 39.107422 A 1.0001 1.0001 0 0 0 48 37.580078C46.130795 37.580078 43.80197 37.203776 42.041016 36.576172C41.160538 36.26237 40.422519 35.880611 39.970703 35.517578C39.518887 35.154545 39.408203 34.891041 39.408203 34.710938C39.408203 34.098996 39.560764 33.827251 39.8125 33.378906C40.064236 32.930561 40.472656 32.270291 40.472656 31.357422C40.472656 29.666387 39.153391 28 37.230469 28 z M 27 30 A 1 1 0 0 0 26 31 A 1 1 0 0 0 27 32 A 1 1 0 0 0 28 31 A 1 1 0 0 0 27 30 z M 37.230469 30C37.941546 30 38.472656 30.728456 38.472656 31.357422C38.472656 31.709553 38.348624 31.899283 38.068359 32.398438C37.788095 32.89759 37.408203 33.669877 37.408203 34.710938C37.408203 35.693334 37.996441 36.495799 38.71875 37.076172C39.441059 37.656545 40.351118 38.096161 41.369141 38.458984C42.831788 38.980271 44.491615 39.261805 46.113281 39.417969C44.719423 40.988896 42.743508 42 39 42C37.000066 42 35.714095 41.55771 34.978516 41.023438C34.242936 40.489164 34 39.895112 34 39.267578C34 38.576641 34.424453 37.74193 34.974609 36.837891C35.524766 35.933852 36.240234 34.999868 36.240234 33.730469C36.240234 33.314751 36.138303 32.865765 35.853516 32.515625C35.568728 32.165485 35.181866 32.003712 34.882812 31.927734C34.574365 31.849374 34.383322 31.841004 34.142578 31.818359C34.525009 31.566001 34.927956 31.308393 35.160156 31.058594C35.823544 30.344925 35.903837 30 37.230469 30 z M 28 34 A 1 1 0 0 0 27 35 A 1 1 0 0 0 28 36 A 1 1 0 0 0 29 35 A 1 1 0 0 0 28 34 z M 12.984375 37.986328 A 1.0001 1.0001 0 0 0 12.839844 38L3 38 A 1.0001 1.0001 0 1 0 3 40L12 40L12 46 A 1.0001 1.0001 0 1 0 14 46L14 39.167969 A 1.0001 1.0001 0 0 0 13.708984 38.28125 A 1.0001 1.0001 0 0 0 13.707031 38.279297 A 1.0001 1.0001 0 0 0 13.699219 38.271484 A 1.0001 1.0001 0 0 0 13.691406 38.263672 A 1.0001 1.0001 0 0 0 12.984375 37.986328 z" fill="#5B5B5B" />
</svg>