<svg xmlns="http://www.w3.org/2000/svg" viewBox="0 0 64 64" width="50" height="50">
  <path d="M38.28125 0C34.760156 0 31.604297 1.5675781 29.455078 4.0332031C26.716016 3.4597656 23.630469 3.125 20.3125 3.125C8.9226562 3.125 0 6.9 0 11.71875L0 35.15625C0 39.975 8.9226562 43.75 20.3125 43.75C31.702344 43.75 40.625 39.975 40.625 35.15625L40.625 23.201172C45.967969 22.112109 50 17.378125 50 11.71875C50 5.2570312 44.742969 0 38.28125 0 z M 38.28125 1.5625C43.88125 1.5625 48.4375 6.11875 48.4375 11.71875C48.4375 17.31875 43.88125 21.875 38.28125 21.875C34.2 21.875 30.530859 19.448828 28.931641 15.693359C28.762891 15.294922 28.303125 15.111719 27.90625 15.28125C27.509375 15.45 27.324609 15.907812 27.494141 16.304688C27.752734 16.9125 28.0625 17.4875 28.410156 18.03125C26.014844 18.476562 23.308594 18.75 20.3125 18.75C9.096875 18.75 1.5625 15.114844 1.5625 11.71875C1.5625 8.3226562 9.096875 4.6875 20.3125 4.6875C23.313281 4.6875 26.023438 4.9632812 28.421875 5.4101562C27.55 6.7679687 26.95625 8.3140625 26.707031 9.9765625L24.771484 8.0429688C24.466016 7.7375 23.973438 7.7375 23.667969 8.0429688C23.3625 8.3484375 23.3625 8.8410156 23.667969 9.1464844L26.791016 12.271484C26.862891 12.344141 26.950781 12.401562 27.046875 12.441406C27.141406 12.480469 27.242188 12.5 27.34375 12.5C27.445313 12.5 27.547266 12.479297 27.642578 12.439453C27.738672 12.399609 27.824609 12.342187 27.896484 12.269531L31.021484 9.1464844C31.326953 8.8410156 31.326953 8.3464844 31.021484 8.0410156C30.716016 7.7355469 30.221484 7.7355469 29.916016 8.0410156L28.347656 9.609375C29.321875 5.01875 33.404687 1.5625 38.28125 1.5625 z M 38.28125 5.46875C37.849219 5.46875 37.5 5.8179687 37.5 6.25L37.5 11.71875C37.5 12.150781 37.849219 12.5 38.28125 12.5L43.75 12.5C44.182031 12.5 44.53125 12.150781 44.53125 11.71875C44.53125 11.286719 44.182031 10.9375 43.75 10.9375L39.0625 10.9375L39.0625 6.25C39.0625 5.8179688 38.713281 5.46875 38.28125 5.46875 z M 20.3125 6.25C19.59375 6.25 18.888672 6.265625 18.197266 6.296875C17.766016 6.315625 17.431641 6.6820313 17.451172 7.1132812C17.469922 7.5320312 17.815625 7.859375 18.230469 7.859375C18.242969 7.859375 18.255078 7.8582031 18.267578 7.8574219C18.935547 7.8277344 19.617969 7.8125 20.3125 7.8125C20.744531 7.8125 21.09375 7.4632813 21.09375 7.03125C21.09375 6.5992187 20.744531 6.25 20.3125 6.25 z M 15.503906 6.4960938C13.834375 6.6726563 12.282031 6.9390625 10.890625 7.2890625C10.471875 7.39375 10.219531 7.8203125 10.324219 8.2382812C10.4125 8.5929688 10.730078 8.828125 11.080078 8.828125C11.143359 8.828125 11.208203 8.8203125 11.271484 8.8046875C12.592578 8.4734375 14.071094 8.2203125 15.667969 8.0507812C16.096875 8.0054688 16.408594 7.6210937 16.363281 7.1914062C16.31875 6.7625 15.938281 6.4515625 15.503906 6.4960938 z M 1.5625 15.083984C4.6 18.184766 11.760156 20.3125 20.3125 20.3125C23.623438 20.3125 26.704297 19.977344 29.439453 19.40625C31.158203 21.383594 33.499219 22.735938 36.101562 23.226562C32.914844 25.130469 27.346094 26.5625 20.3125 26.5625C9.096875 26.5625 1.5625 22.927344 1.5625 19.53125L1.5625 15.083984 z M 1.5625 22.896484C4.6 25.997266 11.760156 28.125 20.3125 28.125C28.3625 28.125 35.165234 26.234766 38.470703 23.427734C38.669922 23.424609 38.866406 23.410938 39.0625 23.398438L39.0625 27.34375C39.0625 28.696094 37.864453 30.09375 35.689453 31.277344C35.311328 31.483594 35.171875 31.958984 35.378906 32.337891C35.520313 32.598047 35.787109 32.744141 36.064453 32.744141C36.190234 32.744141 36.317969 32.713281 36.4375 32.648438C37.520313 32.058594 38.392969 31.415625 39.0625 30.730469L39.0625 35.15625C39.0625 38.552344 31.528125 42.1875 20.3125 42.1875C9.096875 42.1875 1.5625 38.552344 1.5625 35.15625L1.5625 30.693359C4.0726562 33.274609 9.4351562 35.211328 16.292969 35.775391C16.314844 35.776953 16.338281 35.777344 16.359375 35.777344C16.7625 35.777344 17.103125 35.468359 17.136719 35.060547C17.171875 34.630078 16.852344 34.252734 16.421875 34.216797C7.9507812 33.520703 1.5625 30.565625 1.5625 27.34375L1.5625 22.896484 z M 32.03125 31.25C31.599219 31.25 31.25 31.599219 31.25 32.03125L31.25 33.59375C31.25 34.025781 31.599219 34.375 32.03125 34.375C32.463281 34.375 32.8125 34.025781 32.8125 33.59375L32.8125 32.03125C32.8125 31.599219 32.463281 31.25 32.03125 31.25 z M 28.125 32.109375C27.692969 32.109375 27.34375 32.458594 27.34375 32.890625L27.34375 34.453125C27.34375 34.885156 27.692969 35.234375 28.125 35.234375C28.557031 35.234375 28.90625 34.885156 28.90625 34.453125L28.90625 32.890625C28.90625 32.458594 28.557031 32.109375 28.125 32.109375 z M 24.21875 32.65625C23.786719 32.65625 23.4375 33.005469 23.4375 33.4375L23.4375 35C23.4375 35.432031 23.786719 35.78125 24.21875 35.78125C24.650781 35.78125 25 35.432031 25 35L25 33.4375C25 33.005469 24.650781 32.65625 24.21875 32.65625 z M 20.3125 32.8125C19.880469 32.8125 19.53125 33.161719 19.53125 33.59375L19.53125 35.15625C19.53125 35.588281 19.880469 35.9375 20.3125 35.9375C20.744531 35.9375 21.09375 35.588281 21.09375 35.15625L21.09375 33.59375C21.09375 33.161719 20.744531 32.8125 20.3125 32.8125 z" transform="scale(1.28)" fill="#5B5B5B" />
</svg>