<?xml version="1.0" encoding="utf-8"?>
<svg xmlns="http://www.w3.org/2000/svg" viewBox="0 0 30 30" width="360" height="360">
  <path fill="#c2e8ff" d="M10,24.5c-4.687,0-8.5-3.813-8.5-8.5C1.5,9.432,5.292,1.5,10,1.5s8.5,7.932,8.5,14.5 C18.5,20.687,14.687,24.5,10,24.5z" />
  <path fill="#7496c4" d="M10,2c4.308,0,8,7.698,8,14c0,4.411-3.589,8-8,8s-8-3.589-8-8C2,9.698,5.692,2,10,2 M10,1 C5.029,1,1,9.018,1,16c0,4.971,4.029,9,9,9s9-4.029,9-9C19,9.042,14.971,1,10,1L10,1z" />
  <path fill="#92c8eb" d="M9 8A1 1 0 1 0 9 10 1 1 0 1 0 9 8zM5 15A1 1 0 1 0 5 17 1 1 0 1 0 5 15zM12.5 12A.5.5 0 1 0 12.5 13 .5.5 0 1 0 12.5 12zM12.5 7A.5.5 0 1 0 12.5 8 .5.5 0 1 0 12.5 7zM7.5 14A.5.5 0 1 0 7.5 15 .5.5 0 1 0 7.5 14z" />
  <path fill="#ebf8ff" d="M14,28.5c-4.687,0-8.5-3.813-8.5-8.5s3.813-8.5,8.5-8.5c6.568,0,14.5,3.792,14.5,8.5 S20.568,28.5,14,28.5z" />
  <path fill="#7496c4" d="M14,12c6.302,0,14,3.692,14,8s-7.698,8-14,8c-4.411,0-8-3.589-8-8S9.589,12,14,12 M14,11 c-4.971,0-9,4.029-9,9s4.029,9,9,9c6.958,0,15-4.029,15-9S20.982,11,14,11L14,11z" />
  <path fill="#92c8eb" d="M21 18A1 1 0 1 0 21 20 1 1 0 1 0 21 18zM14 23A1 1 0 1 0 14 25 1 1 0 1 0 14 23zM14 14A1 1 0 1 0 14 16 1 1 0 1 0 14 14zM17.5 22A.5.5 0 1 0 17.5 23 .5.5 0 1 0 17.5 22zM22.5 22A.5.5 0 1 0 22.5 23 .5.5 0 1 0 22.5 22z" />
  <g>
    <path fill="#92c8eb" d="M15.5 17A0.5 0.5 0 1 0 15.5 18A0.5 0.5 0 1 0 15.5 17Z" />
  </g>
  <g>
    <path fill="#92c8eb" d="M11.5 21A0.5 0.5 0 1 0 11.5 22A0.5 0.5 0 1 0 11.5 21Z" />
  </g>
</svg>