<svg xmlns="http://www.w3.org/2000/svg" viewBox="0 0 30 30"><path fill="#fff" d="M3.5 27.5L3.5 2.5 16.8 2.5 22.5 8.2 22.5 27.5z"/><path fill="#788b9c" d="M16.6,3L22,8.4V27H4V3H16.6 M17,2H3v26h20V8L17,2L17,2z"/><path fill="#fff" d="M16.5 8.5L16.5 2.5 16.8 2.5 22.5 8.2 22.5 8.5z"/><path fill="#788b9c" d="M17,3.4L21.6,8H17V3.4 M17,2h-1v7h7V8L17,2L17,2z"/><path fill="#d6e3ed" d="M22 16L22 27 19.4 27 20.4 28 23 28 23 16z"/><g><path fill="#9cacbd" d="M19.1 23.5L22.5 23.5 22.5 17.5 25.5 17.5 25.5 23.5 28.9 23.5 24 29.2z"/><path fill="#36404d" d="M25,18v5v1h1h1.8L24,28.5L20.2,24H22h1v-1v-5H25 M26,17h-4v6h-4l6,7l6-7h-4V17L26,17z"/></g><path fill="#c74343" d="M7.4,24C6.7,24,6,23.5,6,22.5c0-1.1,2-2.1,4.4-2.9c0.9-1.5,1.7-3.4,2.1-5.2c-0.9-1.7-1.6-3.3-1.6-4.2 c0-0.3,0.1-0.6,0.2-0.8C11.4,9.1,11.7,9,12,9c0.7,0,1.2,0.3,1.5,0.8c0.3,0.4,0.4,1.1,0.4,1.8c0,0.7-0.1,1.6-0.4,2.6 c0.8,1.5,1.9,2.9,2.9,4c1.7-0.2,2.9-0.2,3.6,0.1c0.8,0.3,0.9,0.8,0.9,1.1c0,0.5-0.1,0.8-0.4,1.1c-0.3,0.3-0.7,0.5-1.3,0.5 c0,0,0,0,0,0c-1,0-2.1-0.7-3.2-1.7c-1.7,0.2-3.4,0.7-5,1.2C9.9,22.5,8.6,24,7.4,24z M9.6,20.9C8.1,21.5,7,22.1,7,22.5 C7,22.6,7,23,7.4,23C8,23,8.8,22.2,9.6,20.9z M17.5,19.1c0.7,0.6,1.3,0.9,1.8,0.9c0,0,0,0,0,0c0.2,0,0.5,0,0.6-0.2 c0.1-0.1,0.1-0.2,0.1-0.4c0,0-0.2-0.3-1.3-0.3C18.3,19.1,17.9,19.1,17.5,19.1z M13.2,15.6c-0.4,1.2-0.9,2.5-1.5,3.6 c1.2-0.3,2.4-0.6,3.5-0.8C14.6,17.6,13.9,16.6,13.2,15.6z M12,10c-0.1,0.2,0,1.1,0.9,2.9c0.1-0.4,0.1-0.9,0.1-1.3 c0-0.6-0.1-1-0.3-1.3C12.6,10.1,12.4,10,12,10z"/></svg>