<svg xmlns="http://www.w3.org/2000/svg" viewBox="0 0 30 30"><path fill="#dbf2ff" d="M2.5 28.5L2.5 9.696 14.998 3.557 27.5 9.696 27.5 28.5z"/><path fill="#7496c4" d="M14.998,4.114L27,10.008V28H3V10.008L14.998,4.114 M14.998,3L2,9.385V29h26V9.385L14.998,3 L14.998,3z"/><path fill="#f78f8f" d="M15 4.441L1.5 11.191 1.5 8.309 15 1.559 28.5 8.309 28.5 11.191z"/><path fill="#c74343" d="M15,2.118l13,6.5v1.764L15.447,4.106L15,3.882l-0.447,0.224L2,10.382V8.618L15,2.118 M15,1L1,8v4 l14-7l14,7V8L15,1L15,1z"/><path fill="#a6714e" d="M18 17L25 19 21 20.5 23 24 16 21z"/><path fill="#f78f8f" d="M12,16.5c-1.919,0-3.48-1.57-3.48-3.5S10.081,9.5,12,9.5c0.876,0,1.719,0.335,2.374,0.943 l0.385,0.357l0.338-0.401C15.578,9.828,16.272,9.5,17,9.5c1.378,0,2.5,1.121,2.5,2.5l-0.018,0.63l0.612-0.089 c0.131-0.027,0.267-0.041,0.406-0.041c1.098,0,1.99,0.897,1.99,2s-0.893,2-1.99,2H12z"/><path fill="#c74343" d="M17,10c1.085,0,1.97,0.868,1.999,1.945l-0.003,0.023l-0.001,0.066l-0.021,1.248l1.223-0.251 C20.295,13.01,20.398,13,20.5,13c0.822,0,1.49,0.673,1.49,1.5S21.322,16,20.5,16H12c-1.643,0-2.98-1.346-2.98-3s1.337-3,2.98-3 c0.749,0,1.472,0.288,2.034,0.81l0.769,0.715l0.676-0.803C15.866,10.263,16.42,10,17,10 M17,9c-0.921,0-1.735,0.424-2.285,1.078 C14.001,9.414,13.051,9,12,9c-2.209,0-3.98,1.791-3.98,4c0,2.209,1.771,4,3.98,4c1.617,0,7.224,0,8.5,0 c1.381,0,2.49-1.119,2.49-2.5c0-1.381-1.109-2.5-2.49-2.5c-0.173,0-0.342,0.018-0.505,0.051C19.995,12.034,20,12.018,20,12 C20,10.343,18.657,9,17,9L17,9z"/><path fill="#f78f8f" d="M18,26.5c-0.827,0-1.5-0.673-1.5-1.5v-3.795c1.215,1.221,3,3.089,3,3.795 C19.5,25.827,18.827,26.5,18,26.5z"/><path fill="#c74343" d="M17,22.434c0.938,0.983,1.93,2.11,2,2.566c0,0.551-0.449,1-1,1s-1-0.449-1-1V22.434 M16,20 c0,1.25,0,3.895,0,5s0.895,2,2,2s2-0.895,2-2S17.458,21.458,16,20L16,20z"/><g><path fill="#fff1e8" d="M10.586,24.5l0.984-6.179C11.909,16.105,13.772,14.5,16,14.5c2.481,0,4.5,2.019,4.5,4.5 c0,2.131-1.514,3.985-3.6,4.409l-0.4,0.082V24.5H10.586z"/><path fill="#a16a4a" d="M16,15c2.206,0,4,1.794,4,4c0,1.895-1.345,3.543-3.199,3.919L16,23.082v0.817V24h-4.828l0.893-5.606 C12.366,16.427,14.021,15,16,15 M16,14c-2.502,0-4.556,1.843-4.924,4.242L10,25h7v-1.101c2.282-0.463,4-2.48,4-4.899 C21,16.239,18.761,14,16,14L16,14z"/></g><path fill="#fff1e8" d="M20,19c0-2.206-1.794-4-4-4c-1.979,0-3.634,1.427-3.935,3.394L11.016,25H16v-1.101v-0.817l0.801-0.163C18.655,22.543,20,20.895,20,19z"/><path fill="#36404d" d="M17 17A1 1 0 1 0 17 19A1 1 0 1 0 17 17Z"/></svg>