<svg version="1.2" baseProfile="tiny-ps" xmlns="http://www.w3.org/2000/svg" viewBox="0 0 1392 1392" width="1392" height="1392">
	<title>Logo GF</title>
	<style>
		tspan { white-space:pre }
		.shp0 { fill: #f7f7f7 } 
		.shp1 { fill: #ffffff } 
		.shp2 { fill: #006a34 } 
	</style>
	<rect width="1392" height="1392" id="Calque 1" style="display: none;fill: #006a34" />
	<path id="Forme 1" class="shp0" d="M696 1331C356.46 1331 82 1045.14 82 691.5C82 337.86 356.46 52 696 52C1035.54 52 1310 337.86 1310 691.5C1310 1045.14 1035.54 1331 696 1331Z" />
	<g id="Layer 1">
		<g id="&lt;Clip Group&gt;">
			<g id="&lt;Group&gt;">
				<g id="&lt;Group&gt;">
					<path id="&lt;Compound Path&gt;" fill-rule="evenodd" class="shp1" d="M1071.88 1309.39L1071.88 1393.4L978.47 1417.63L978.47 1148.05C1029.54 1182.74 1071.88 1234.16 1071.88 1309.39ZM836.82 1088.24C838.43 1088.63 839.99 1088.98 841.73 1089.44L841.73 1174.96C841.73 1204.63 831.47 1301.47 699.39 1301.47C560.9 1301.47 556.89 1187.9 556.89 1174.96L556.89 1088.01C558.6 1087.61 560.25 1087.22 561.78 1086.87C573.39 1151.76 611.82 1242.62 699.39 1242.62C787.31 1242.62 825.39 1152.97 836.82 1088.24ZM920.13 453.95L474.31 453.95C488.53 336.86 555.09 231.18 684.03 231.18C868.17 231.18 911.17 368.63 920.13 453.95ZM808.17 369.45C808.17 360.96 801.3 354.08 792.8 354.08L605.84 354.08C597.34 354.08 590.47 360.96 590.47 369.45L590.47 429.37C590.47 437.86 597.34 444.74 605.84 444.74L792.8 444.74C801.3 444.74 808.17 437.86 808.17 429.37L808.17 369.45Z" />
					<path id="&lt;Compound Path&gt;" class="shp1" d="M777.44 384.82L621.19 384.82L621.19 414.01L777.44 414.01L777.44 384.82ZM904.49 1318.3C893.28 1318.3 884.05 1327.36 884.05 1338.73C884.05 1347.59 889.69 1354.99 897.48 1357.84C899.68 1358.65 902.02 1359.15 904.49 1359.15C906.99 1359.15 909.36 1358.65 911.58 1357.84C919.44 1354.99 925.07 1347.59 925.07 1338.73C925.07 1327.36 915.86 1318.3 904.49 1318.3ZM869.92 1443.65L537.15 1443.65C532.23 1443.65 528.04 1446.11 525.22 1449.71L521.86 1460.63C522.09 1488.57 528.55 1515.27 540.64 1539.59C544.83 1548.01 549.65 1556.16 555.18 1563.95C557.5 1567.22 559.84 1570.47 562.38 1573.61C566.33 1578.49 570.54 1583.1 574.91 1587.5C575.17 1587.76 575.41 1588.03 575.67 1588.3L625.22 1588.3C624.81 1588.04 624.41 1587.76 624.01 1587.5C613.48 1580.95 603.76 1573.04 595.02 1563.95C592.01 1560.81 589.02 1557.68 586.26 1554.25C582.45 1549.58 579.18 1544.6 576 1539.59C563.43 1519.83 555.58 1497.8 553.26 1474.37L853.81 1474.37C851.48 1497.8 843.63 1519.82 831.08 1539.59C827.88 1544.6 824.59 1549.59 820.78 1554.28C818.04 1557.68 815.05 1560.82 812.05 1563.95C803.32 1573.04 793.61 1580.95 783.09 1587.5C782.68 1587.76 782.29 1588.04 781.88 1588.3L831.41 1588.3C831.67 1588.04 831.91 1587.76 832.17 1587.5C836.53 1583.11 840.73 1578.51 844.67 1573.64C847.23 1570.49 849.56 1567.22 851.9 1563.95C857.42 1556.16 862.25 1548.01 866.44 1539.59C878.74 1514.81 885.28 1487.55 885.28 1459.01C885.28 1450.52 878.41 1443.65 869.92 1443.65Z" />
					<path id="&lt;Compound Path&gt;" fill-rule="evenodd" class="shp1" d="M438.64 1587.5L320.39 1587.5C320.46 1586.77 320.61 1586.06 320.61 1585.31L320.61 1556.83L329.47 1559.56C336.07 1561.63 343.05 1562.66 350.19 1562.66C369.81 1562.66 388.42 1554.27 401.29 1540.81C407.28 1541.79 413.61 1542.37 420.17 1542.51L420.17 1563.95C420.17 1575.35 428.05 1584.86 438.64 1587.5ZM1074.21 1587.5L959.99 1587.5C970.58 1584.86 978.47 1575.35 978.47 1563.95L978.47 1467.94L1071.88 1443.71L1071.88 1577.26C1071.88 1580.93 1072.75 1584.38 1074.21 1587.5ZM454.76 546.13L944.03 546.13L944.03 745.85C944.03 785.52 932.31 917.74 781.51 953.36C756.81 959.24 729.17 962.23 699.39 962.23C658.66 962.23 622.13 956.27 590.75 944.54C490.37 907.26 454.76 814.21 454.76 745.85L454.76 546.13ZM799.97 814.49C797.32 809.41 792.06 806.24 786.35 806.24L617.36 806.24C611.73 806.24 606.55 809.31 603.87 814.25C601.17 819.2 601.4 825.22 604.45 829.94C606.12 832.51 645.79 892.88 703.55 892.88L703.56 892.88C737.95 892.88 770.04 871.86 798.96 830.39C802.22 825.7 802.62 819.56 799.97 814.49ZM777.44 642.15C777.44 661.2 792.95 676.72 812.01 676.72C831.05 676.72 846.57 661.2 846.57 642.15C846.57 623.1 831.05 607.58 812.01 607.58C792.95 607.58 777.44 623.1 777.44 642.15ZM732.08 772.2C755.43 778.54 797 792.22 809.15 801.95C811.99 804.21 815.38 805.31 818.74 805.31C823.26 805.31 827.71 803.33 830.76 799.54C836.05 792.91 834.98 783.25 828.36 777.94C807.27 761.08 746.94 744.4 740.13 742.55C731.97 740.3 723.52 745.16 721.29 753.35C719.06 761.54 723.89 769.98 732.08 772.2ZM658.5 742.55C651.68 744.4 591.35 761.08 570.26 777.94C563.64 783.25 562.56 792.91 567.86 799.54C570.9 803.34 575.36 805.31 579.87 805.31C583.24 805.31 586.63 804.21 589.47 801.95C601.61 792.22 643.19 778.54 666.53 772.2C674.73 769.98 679.56 761.54 677.34 753.35C675.1 745.16 666.68 740.3 658.5 742.55ZM552.06 642.15C552.06 661.2 567.57 676.72 586.63 676.72C605.67 676.72 621.19 661.2 621.19 642.15C621.19 623.1 605.67 607.58 586.63 607.58C567.57 607.58 552.06 623.1 552.06 642.15ZM992.47 678.12L992.47 606.03C1006.11 612.35 1015.63 626.13 1015.63 642.15C1015.63 658.13 1006.11 671.84 992.47 678.12ZM498.21 1275.91C506.23 1287.77 510.14 1301.63 509.38 1319.66C508.95 1330 507.13 1341.6 503.45 1355.22L502.64 1357.84L502.25 1359.1L468.87 1467.13L467.91 1470.23C463.27 1481.85 454.37 1487.99 444.52 1491.07C436.59 1493.57 428.12 1494.07 420.66 1493.74C420.73 1490.48 420.56 1487.24 420.17 1484.04C419.83 1481.09 419.31 1478.17 418.59 1475.31C419.15 1475.05 419.61 1474.63 420.17 1474.36C429.77 1469.53 437.99 1462.45 444.52 1453.76C449.32 1447.37 453.35 1440.31 455.86 1432.29C461.17 1414.73 459.35 1396.53 451.85 1381.03C458.59 1375.96 464.28 1369.54 468.87 1362.26C469.77 1360.82 470.64 1359.34 471.46 1357.84C473.62 1353.91 475.49 1349.76 476.86 1345.32C481.53 1330.2 480.85 1314.38 475.59 1300.24C484.92 1294.11 492.63 1285.73 498.21 1275.91ZM404.05 1097.13L409.98 1078.47C411.74 1072.97 415.52 1068.48 420.63 1065.84C425.79 1063.17 431.69 1062.73 437.33 1064.52C442.21 1066.06 446.06 1069.41 448.78 1073.67C449.14 1074.24 449.7 1074.61 450.01 1075.22C451.72 1078.52 452.2 1082.09 452.11 1085.67C452.07 1087.7 452.07 1089.72 451.44 1091.7L438.31 1133.02L428.2 1164.84L420.17 1162.37L401.74 1156.7L386.62 1152.03L404.05 1097.13ZM699.39 1010.66C732.73 1010.66 763.94 1007.27 792.11 1000.6L792.11 1048.21C792.11 1050.93 791.96 1054.01 791.7 1057.53C788.99 1095.47 767.11 1193.92 699.39 1193.92C632.39 1193.92 609.9 1095 606.91 1056.98C606.66 1053.67 606.53 1050.74 606.53 1048.21L606.53 999.84C635.02 1006.92 666.04 1010.66 699.39 1010.66ZM385.61 642.15C385.61 627.13 394.05 614.17 406.31 607.39L406.31 676.79C394.05 670.03 385.61 657.12 385.61 642.15ZM320.61 1505.88L293.63 1497.58L271.91 1490.89L207.69 1471.13C199.1 1468.06 192 1458.29 189.63 1446.25C187.65 1436.2 189.49 1426.31 194.11 1422.15C199.46 1417.33 202.4 1410.42 202.16 1403.24C201.93 1396.06 198.52 1389.35 192.88 1384.91C178.89 1373.88 180.28 1350.65 181.38 1345.49C184 1333.13 193.12 1329.46 194.34 1329.02C203.01 1326.61 209.58 1319.54 211.52 1310.75C213.47 1301.96 210.32 1292.75 203.46 1286.92C203.24 1286.71 180.74 1267.26 187.23 1247.72C191.34 1235.56 209.07 1227.13 214.84 1225.18C221.02 1223.16 226.15 1218.77 229.08 1212.96C232 1207.14 232.48 1200.4 230.39 1194.24C230.36 1194.14 227.6 1184.72 229.76 1175.92C232.08 1166.27 241.75 1161.89 249.75 1161.89C252.04 1161.89 254.31 1162.22 256.54 1162.91L312.07 1180.02L361.47 1195.24L420.17 1213.33L443.48 1220.52C443.86 1220.64 444.16 1220.85 444.52 1220.99C450.76 1223.27 455.53 1228.1 457.72 1234.88C459.12 1238.96 459.15 1243.4 457.78 1247.83C455.83 1254.28 450.85 1259.21 444.52 1261.56C443.1 1262.08 441.59 1262.31 440.06 1262.53L420.17 1256.39L338.46 1231.18L321.43 1225.9C308.54 1221.94 294.93 1229.13 290.98 1241.99C287.02 1254.85 294.21 1268.47 307.06 1272.45L323.58 1277.55L420.17 1307.38L423.53 1308.41C430.04 1313.98 432.86 1322.74 430.34 1330.92C428.65 1336.39 424.88 1340.59 420.17 1343.27C417.7 1344.67 415.01 1345.56 412.08 1345.92L320.61 1317.7L283.02 1306.1C279.33 1304.98 275.6 1304.83 272.03 1305.41C263.16 1306.83 255.39 1313.01 252.56 1322.18C248.6 1335.04 255.81 1348.68 268.65 1352.64L271.91 1353.64L293.63 1360.35L320.61 1368.68L398.84 1392.82C407.85 1397.71 412.24 1408.23 409.31 1417.99C406.21 1427.81 396.53 1434.24 385.76 1432.87L320.61 1412.85L299.14 1406.26C297.3 1405.71 295.46 1405.46 293.63 1405.35C285 1404.8 276.73 1408.85 271.91 1415.96C270.59 1417.91 269.43 1420.02 268.7 1422.39C266.45 1429.72 267.91 1437.24 271.91 1443.14C274.91 1447.58 279.3 1451.14 284.82 1452.83L293.63 1455.54L320.61 1463.83L365.9 1477.74C371.18 1483.41 373.31 1491.27 371.03 1498.67C370.8 1499.45 370.56 1500.24 369.59 1502.08C365.02 1511.26 352.98 1515.83 343.85 1513.04L320.61 1505.88Z" />
					<path id="&lt;Compound Path&gt;" fill-rule="evenodd" class="shp2" d="M1199 502.65C1199 528.11 1178.37 548.74 1152.91 548.74L992.47 548.74L992.47 555.48C1033.18 563.26 1064.06 599.13 1064.06 642.15C1064.06 685.09 1033.18 720.9 992.47 728.67L992.47 745.85C992.47 834.31 951.52 937.67 840.81 984.71L840.81 1039.18C849.5 1041.12 860.73 1043.87 873.88 1047.73C948.02 1069.4 1120.58 1138.29 1120.58 1309.39L1120.58 1577.26C1120.58 1590.7 1109.67 1601.61 1096.23 1601.61C1086.46 1601.61 1078.08 1595.81 1074.21 1587.5C1072.75 1584.38 1071.88 1580.93 1071.88 1577.26L1071.88 1443.71L978.47 1467.94L978.47 1563.95C978.47 1575.35 970.58 1584.86 959.99 1587.5C958.1 1587.97 956.16 1588.3 954.12 1588.3L831.41 1588.3C831.67 1588.04 831.91 1587.76 832.17 1587.5C836.53 1583.11 840.73 1578.51 844.67 1573.64C847.23 1570.49 849.56 1567.22 851.9 1563.95C857.42 1556.16 862.25 1548.01 866.44 1539.59C878.74 1514.81 885.28 1487.55 885.28 1459.01C885.28 1450.52 878.41 1443.65 869.92 1443.65L537.15 1443.65C532.23 1443.65 528.04 1446.11 525.22 1449.71L521.86 1460.63C522.09 1488.57 528.55 1515.27 540.64 1539.59C544.83 1548.01 549.65 1556.16 555.18 1563.95C557.5 1567.22 559.84 1570.47 562.38 1573.61C566.33 1578.49 570.54 1583.1 574.91 1587.5C575.17 1587.76 575.41 1588.03 575.67 1588.3L444.52 1588.3C442.48 1588.3 440.53 1587.97 438.64 1587.5C428.05 1584.86 420.17 1575.35 420.17 1563.95L420.17 1542.51C413.61 1542.37 407.28 1541.79 401.29 1540.81C388.42 1554.27 369.81 1562.66 350.19 1562.66C343.05 1562.66 336.07 1561.63 329.47 1559.56L320.61 1556.83L320.61 1585.31C320.61 1586.06 320.46 1586.77 320.39 1587.5C319.27 1599.9 308.95 1609.66 296.26 1609.66C282.82 1609.66 271.91 1598.75 271.91 1585.31L271.91 1541.85L192.31 1517.33C166.49 1508.12 147.54 1484.62 141.84 1455.67C138.29 1437.65 140.18 1420.3 146.84 1405.98C130.34 1381.32 130.47 1350.75 133.73 1335.39C136.89 1320.5 143.78 1309.13 151.7 1300.73C140.19 1282.77 132.33 1258.51 141.04 1232.29C148.57 1209.96 166.27 1195.83 180.36 1187.73C180.01 1180.76 180.4 1172.72 182.43 1164.41C189.71 1134.29 217.38 1113.17 249.75 1113.17C256.95 1113.17 264.07 1114.26 270.92 1116.38L340.06 1137.69L363.56 1063.74C369.23 1045.81 381.58 1031.19 398.31 1022.54C415.07 1013.92 434.16 1012.34 452.16 1018.13C469.97 1023.77 484.6 1036.1 493.26 1052.82C493.73 1053.7 493.94 1054.66 494.36 1055.56C505.33 1051.8 515.42 1048.69 524.14 1046.26C538.14 1042.25 549.73 1039.56 557.83 1037.86L557.83 983.17C446.52 933.64 406.31 825.99 406.31 745.85L406.31 728.16C366.83 719.44 337.18 684.22 337.18 642.15C337.18 600.01 366.83 564.72 406.31 555.98L406.31 546.13L253.86 546.13C228.4 546.13 207.76 525.5 207.76 500.04C207.76 474.58 228.4 453.95 253.86 453.95L381.7 453.95C397.93 294.55 494.31 139 684.03 139C908.81 139 1000.39 298.39 1012.9 456.56L1152.91 456.56C1178.37 456.56 1199 477.19 1199 502.65ZM944.03 546.13L454.76 546.13L454.76 745.85C454.76 814.21 490.37 907.26 590.75 944.54C622.13 956.27 658.66 962.23 699.39 962.23C729.17 962.23 756.81 959.24 781.51 953.36C932.31 917.74 944.03 785.52 944.03 745.85L944.03 546.13ZM777.44 642.15C777.44 623.1 792.95 607.58 812.01 607.58C831.05 607.58 846.57 623.1 846.57 642.15C846.57 661.2 831.05 676.72 812.01 676.72C792.95 676.72 777.44 661.2 777.44 642.15ZM406.31 607.39C394.05 614.17 385.61 627.13 385.61 642.15C385.61 657.12 394.05 670.03 406.31 676.79L406.31 607.39ZM386.62 1152.03L401.74 1156.7L420.17 1162.37L428.2 1164.84L438.31 1133.02L451.44 1091.7C452.07 1089.72 452.07 1087.7 452.11 1085.67C452.2 1082.09 451.72 1078.52 450.01 1075.22C449.7 1074.61 449.14 1074.24 448.78 1073.67C446.06 1069.41 442.21 1066.06 437.33 1064.52C431.69 1062.73 425.79 1063.17 420.63 1065.84C415.52 1068.48 411.74 1072.97 409.98 1078.47L404.05 1097.13L386.62 1152.03ZM252.56 1322.18C255.39 1313.01 263.16 1306.83 272.03 1305.41C275.6 1304.83 279.33 1304.98 283.02 1306.1L320.61 1317.7L412.08 1345.92C415.01 1345.56 417.7 1344.67 420.17 1343.27C424.88 1340.59 428.65 1336.39 430.34 1330.92C432.86 1322.74 430.04 1313.98 423.53 1308.41L420.17 1307.38L323.58 1277.55L307.06 1272.45C294.21 1268.47 287.02 1254.85 290.98 1241.99C294.93 1229.13 308.54 1221.94 321.43 1225.9L338.46 1231.18L420.17 1256.39L440.06 1262.53C441.59 1262.31 443.1 1262.08 444.52 1261.56C450.85 1259.21 455.83 1254.28 457.78 1247.83C459.15 1243.4 459.12 1238.96 457.72 1234.88C455.53 1228.1 450.76 1223.27 444.52 1220.99C444.16 1220.85 443.86 1220.64 443.48 1220.52L420.17 1213.33L361.47 1195.24L312.07 1180.02L256.54 1162.91C254.31 1162.22 252.04 1161.89 249.75 1161.89C241.75 1161.89 232.08 1166.27 229.76 1175.92C227.6 1184.72 230.36 1194.14 230.39 1194.24C232.48 1200.4 232 1207.14 229.08 1212.96C226.15 1218.77 221.02 1223.16 214.84 1225.18C209.07 1227.13 191.34 1235.56 187.23 1247.72C180.74 1267.26 203.24 1286.71 203.46 1286.92C210.32 1292.75 213.47 1301.96 211.52 1310.75C209.58 1319.54 203.01 1326.61 194.34 1329.02C193.12 1329.46 184 1333.13 181.38 1345.49C180.28 1350.65 178.89 1373.88 192.88 1384.91C198.52 1389.35 201.93 1396.06 202.16 1403.24C202.4 1410.42 199.46 1417.33 194.11 1422.15C189.49 1426.31 187.65 1436.2 189.63 1446.25C192 1458.29 199.1 1468.06 207.69 1471.13L271.91 1490.89L293.63 1497.58L320.61 1505.88L343.85 1513.04C352.98 1515.83 365.02 1511.26 369.59 1502.08C370.56 1500.24 370.8 1499.45 371.03 1498.67C373.31 1491.27 371.18 1483.41 365.9 1477.74L320.61 1463.83L293.63 1455.54L284.82 1452.83C279.3 1451.14 274.91 1447.58 271.91 1443.14C267.91 1437.24 266.45 1429.72 268.7 1422.39C269.43 1420.02 270.59 1417.91 271.91 1415.96C276.73 1408.85 285 1404.8 293.63 1405.35C295.46 1405.46 297.3 1405.71 299.14 1406.26L320.61 1412.85L385.76 1432.87C396.53 1434.24 406.21 1427.81 409.31 1417.99C412.24 1408.23 407.85 1397.71 398.84 1392.82L320.61 1368.68L293.63 1360.35L271.91 1353.64L268.65 1352.64C255.81 1348.68 248.6 1335.04 252.56 1322.18ZM498.21 1275.91C492.63 1285.73 484.92 1294.11 475.59 1300.24C480.85 1314.38 481.53 1330.2 476.86 1345.32C475.49 1349.76 473.62 1353.91 471.46 1357.84C470.64 1359.34 469.77 1360.82 468.87 1362.26C464.28 1369.54 458.59 1375.96 451.85 1381.03C459.35 1396.53 461.17 1414.73 455.86 1432.29C453.35 1440.31 449.32 1447.37 444.52 1453.76C437.99 1462.45 429.77 1469.53 420.17 1474.36C419.61 1474.63 419.15 1475.05 418.59 1475.31C419.31 1478.17 419.83 1481.09 420.17 1484.04C420.56 1487.24 420.73 1490.48 420.66 1493.74C428.12 1494.07 436.59 1493.57 444.52 1491.07C454.37 1487.99 463.27 1481.85 467.91 1470.23L468.87 1467.13L502.25 1359.1L502.64 1357.84L503.45 1355.22C507.13 1341.6 508.95 1330 509.38 1319.66C510.14 1301.63 506.23 1287.77 498.21 1275.91ZM978.47 1417.63L1071.88 1393.4L1071.88 1309.39C1071.88 1234.16 1029.54 1182.74 978.47 1148.05L978.47 1417.63ZM884.05 1338.73C884.05 1347.59 889.69 1354.99 897.48 1357.84C899.68 1358.65 902.02 1359.15 904.49 1359.15C906.99 1359.15 909.36 1358.65 911.58 1357.84C919.44 1354.99 925.07 1347.59 925.07 1338.73C925.07 1327.36 915.86 1318.3 904.49 1318.3C893.28 1318.3 884.05 1327.36 884.05 1338.73ZM474.31 453.95L920.13 453.95C911.17 368.63 868.17 231.18 684.03 231.18C555.09 231.18 488.53 336.86 474.31 453.95ZM836.82 1088.24C825.39 1152.97 787.31 1242.62 699.39 1242.62C611.82 1242.62 573.39 1151.76 561.78 1086.87C560.25 1087.22 558.6 1087.61 556.89 1088.01L556.89 1174.96C556.89 1187.9 560.9 1301.47 699.39 1301.47C831.47 1301.47 841.73 1204.63 841.73 1174.96L841.73 1089.44C839.99 1088.98 838.43 1088.63 836.82 1088.24ZM606.91 1056.98C609.9 1095 632.39 1193.92 699.39 1193.92C767.11 1193.92 788.99 1095.47 791.7 1057.53C791.96 1054.01 792.11 1050.93 792.11 1048.21L792.11 1000.6C763.94 1007.27 732.73 1010.66 699.39 1010.66C666.04 1010.66 635.02 1006.92 606.53 999.84L606.53 1048.21C606.53 1050.74 606.66 1053.67 606.91 1056.98ZM799.97 814.49C802.62 819.56 802.22 825.7 798.96 830.39C770.04 871.86 737.95 892.88 703.56 892.88L703.55 892.88C645.79 892.88 606.12 832.51 604.45 829.94C601.4 825.22 601.17 819.2 603.87 814.25C606.55 809.31 611.73 806.24 617.36 806.24L786.35 806.24C792.06 806.24 797.32 809.41 799.97 814.49ZM992.47 606.03L992.47 678.12C1006.11 671.84 1015.63 658.13 1015.63 642.15C1015.63 626.13 1006.11 612.35 992.47 606.03ZM570.26 777.94C591.35 761.08 651.68 744.4 658.5 742.55C666.68 740.3 675.1 745.16 677.34 753.35C679.56 761.54 674.73 769.98 666.53 772.2C643.19 778.54 601.61 792.22 589.47 801.95C586.63 804.21 583.24 805.31 579.87 805.31C575.36 805.31 570.9 803.34 567.86 799.54C562.56 792.91 563.64 783.25 570.26 777.94ZM552.06 642.15C552.06 623.1 567.57 607.58 586.63 607.58C605.67 607.58 621.19 623.1 621.19 642.15C621.19 661.2 605.67 676.72 586.63 676.72C567.57 676.72 552.06 661.2 552.06 642.15ZM721.29 753.35C723.52 745.16 731.97 740.3 740.13 742.55C746.94 744.4 807.27 761.08 828.36 777.94C834.98 783.25 836.05 792.91 830.76 799.54C827.71 803.33 823.26 805.31 818.74 805.31C815.38 805.31 811.99 804.21 809.15 801.95C797 792.22 755.43 778.54 732.08 772.2C723.89 769.98 719.06 761.54 721.29 753.35ZM808.17 369.45L808.17 429.37C808.17 437.86 801.3 444.74 792.8 444.74L605.84 444.74C597.34 444.74 590.47 437.86 590.47 429.37L590.47 369.45C590.47 360.96 597.34 354.08 605.84 354.08L792.8 354.08C801.3 354.08 808.17 360.96 808.17 369.45ZM777.44 384.82L621.19 384.82L621.19 414.01L777.44 414.01L777.44 384.82ZM853.81 1474.37C851.48 1497.8 843.63 1519.82 831.08 1539.59C827.88 1544.6 824.59 1549.59 820.78 1554.28C818.04 1557.68 815.05 1560.82 812.05 1563.95C803.32 1573.04 793.61 1580.95 783.09 1587.5C782.68 1587.76 782.29 1588.04 781.88 1588.3L625.22 1588.3C624.81 1588.04 624.41 1587.76 624.01 1587.5C613.48 1580.95 603.76 1573.04 595.02 1563.95C592.01 1560.81 589.02 1557.68 586.26 1554.25C582.45 1549.58 579.18 1544.6 576 1539.59C563.43 1519.83 555.58 1497.8 553.26 1474.37L853.81 1474.37Z" />
				</g>
				<g id="&lt;Group&gt;">
					<path id="&lt;Compound Path&gt;" fill-rule="evenodd" class="shp1" d="M763.14 1411.84C760.7 1417.18 757.09 1421.8 752.56 1425.44C752.71 1426.06 752.79 1426.7 752.8 1427.35C752.91 1431.17 750.75 1434.72 747.33 1436.38C746.11 1436.98 734.96 1442.24 720.96 1442.24C719.11 1442.24 717.26 1442.13 715.43 1441.93L715.43 1454.98C715.43 1462.59 709.24 1468.77 701.64 1468.77C694.03 1468.77 687.85 1462.59 687.85 1454.98L687.85 1441.93C686 1442.13 684.16 1442.24 682.31 1442.24C667.94 1442.24 656.4 1436.61 655.95 1436.39C652.68 1434.8 650.56 1431.49 650.46 1427.85C646.58 1424.92 643.26 1421.3 640.69 1417.2C635.04 1408.18 633.23 1397.51 635.61 1387.13C637.61 1378.39 642.47 1370.65 649.39 1365.05C650.58 1354.3 658.04 1345.05 668.3 1341.62C674.63 1328.94 687.89 1320.61 702.16 1320.61C716.47 1320.61 729.37 1328.6 735.82 1341.21C747.74 1344.54 756.09 1355.37 756.09 1368.04C756.09 1368.66 756.07 1369.26 756.04 1369.87C766.65 1380.94 769.62 1397.76 763.14 1411.84ZM753.81 1376.09C753.6 1375.85 753.4 1375.59 753.19 1375.35C752.34 1374.36 751.45 1373.41 750.47 1372.53C750.22 1372.3 749.94 1372.1 749.68 1371.89C750 1370.42 750.21 1368.93 750.21 1367.4C750.21 1366.05 750.06 1364.73 749.82 1363.45C749.68 1362.67 749.43 1361.94 749.21 1361.2C749.09 1360.83 749 1360.45 748.87 1360.08C746.3 1352.96 740.1 1347.68 732.4 1346.37C732.14 1346.32 731.88 1346.3 731.61 1346.26C730.93 1344.5 730.1 1342.82 729.13 1341.23C723.59 1332.13 713.61 1326.02 702.19 1326.02C693.91 1326.02 686.3 1329.36 680.59 1334.75C680.48 1334.86 680.37 1334.96 680.26 1335.07C679.41 1335.9 678.58 1336.74 677.82 1337.67C675.68 1340.27 673.93 1343.2 672.71 1346.43C672.51 1346.47 672.3 1346.49 672.1 1346.54C666.07 1347.85 661.03 1351.69 658.06 1356.89C657.83 1357.29 657.62 1357.72 657.42 1358.14C657.14 1358.71 656.84 1359.28 656.62 1359.87C655.72 1362.23 655.2 1364.76 655.2 1367.4C655.2 1367.6 655.23 1367.8 655.24 1368C653.22 1369.36 651.34 1370.91 649.65 1372.67C649.39 1372.95 649.14 1373.24 648.88 1373.52C648.56 1373.88 648.24 1374.25 647.92 1374.63C647.38 1375.29 646.87 1375.97 646.38 1376.68C646.35 1376.73 646.31 1376.77 646.28 1376.82C643.9 1380.25 642.11 1384.17 641.13 1388.45C639.37 1396.14 640.33 1404.01 643.81 1410.97C644.3 1411.95 644.83 1412.91 645.42 1413.84C648.29 1418.42 652.15 1422.15 656.68 1424.84C656.62 1424.89 656.57 1424.95 656.52 1425C655.66 1425.78 655.12 1426.87 655.09 1428.07C655.05 1429.76 655.99 1431.31 657.5 1432.06C657.95 1432.27 668.67 1437.45 681.94 1437.45C685.82 1437.45 689.52 1437 693.03 1436.11L693.03 1456.12C693.03 1460.88 696.89 1464.74 701.66 1464.74C706.42 1464.74 710.28 1460.88 710.28 1456.12L710.28 1436.12C713.79 1437 717.49 1437.45 721.38 1437.45C734.63 1437.45 745.35 1432.27 745.8 1432.06C747.32 1431.31 748.26 1429.76 748.22 1428.07C748.17 1426.39 747.15 1424.88 745.61 1424.22C745.29 1424.08 744.99 1423.99 744.67 1423.86C744.52 1423.8 744.37 1423.75 744.22 1423.69C750.23 1420.48 755.08 1415.54 757.99 1409.25C758.01 1409.22 758.02 1409.2 758.04 1409.17C758.74 1407.63 759.27 1406.07 759.72 1404.5C759.73 1404.46 759.74 1404.43 759.75 1404.4C762.51 1394.41 760.12 1383.88 753.81 1376.09ZM750.2 1405.57C747.64 1411.13 743.07 1415.37 737.33 1417.49C733.23 1419.01 728.89 1419.27 724.71 1418.39C732.14 1409.81 735.37 1400.73 735.59 1400.1C736.13 1398.5 735.7 1396.73 734.48 1395.57C733.25 1394.41 731.46 1394.08 729.91 1394.69C721.66 1397.99 715.57 1401.97 710.98 1406.01C710.58 1399.95 709.08 1392.9 705.62 1384.83C705.58 1384.74 705.52 1384.67 705.48 1384.59C705.35 1384.33 705.21 1384.08 705.03 1383.85C704.24 1382.87 703.06 1382.25 701.77 1382.22C701.13 1382.16 700.5 1382.33 699.91 1382.61C699.08 1382.99 698.37 1383.62 697.91 1384.44C697.87 1384.51 697.82 1384.56 697.78 1384.63C697.48 1385.25 693.13 1394.39 692.47 1406.14C687.87 1402.05 681.74 1398.02 673.41 1394.69C671.85 1394.08 670.06 1394.41 668.84 1395.57C667.62 1396.73 667.18 1398.5 667.73 1400.1C667.95 1400.74 671.3 1410.17 679.04 1418.9C675.68 1419.12 672.24 1419.65 668.73 1420.52C668.58 1420.48 668.47 1420.38 668.32 1420.34C661.81 1418.85 656.27 1414.91 652.73 1409.25C649.18 1403.59 648.05 1396.89 649.54 1390.38C651.12 1383.49 655.43 1377.92 661.11 1374.53C665.26 1372.06 670.11 1370.7 675.28 1371C676.34 1371.09 677.28 1370.74 678.05 1370.16C678.99 1369.47 679.63 1368.42 679.77 1367.19C679.78 1367.1 679.82 1367.03 679.83 1366.94C679.97 1364.56 678.15 1362.53 675.76 1362.39C675.64 1362.39 675.53 1362.39 675.41 1362.39C671.62 1362.2 667.93 1362.67 664.45 1363.69C665.66 1359.73 668.73 1356.56 672.69 1355.26C673.24 1355.75 673.87 1356.16 674.64 1356.31C674.77 1356.34 674.89 1356.3 675.02 1356.31C677.19 1356.57 679.28 1355.16 679.73 1352.95C679.89 1352.18 680.16 1351.46 680.39 1350.72C683.36 1341.3 692.13 1334.65 702.19 1334.65C712.54 1334.65 721.21 1341.59 724.05 1351.02C724.68 1353.11 725.12 1355.28 725.12 1357.57C725.12 1359.83 726.86 1361.62 729.07 1361.81C729.19 1361.83 729.3 1361.89 729.43 1361.89C731.81 1361.89 733.75 1359.96 733.75 1357.57C733.75 1356.9 733.69 1356.25 733.65 1355.58C738.18 1357.44 741.34 1361.78 741.53 1366.93C737.4 1365.2 732.94 1364.35 728.52 1364.48C728.31 1364.48 728.11 1364.46 727.92 1364.47C725.54 1364.59 723.7 1366.61 723.81 1368.99C723.82 1369.07 723.87 1369.14 723.88 1369.22C724 1370.32 724.51 1371.28 725.3 1371.96C726.11 1372.66 727.19 1373.08 728.33 1373.09C731.97 1372.89 735.57 1373.61 738.95 1375.16C740.28 1375.77 741.51 1376.52 742.67 1377.35C751.45 1383.61 754.87 1395.42 750.2 1405.57Z" />
					<path id="&lt;Compound Path&gt;" fill-rule="evenodd" class="shp2" d="M759.75 1404.4C759.74 1404.43 759.73 1404.46 759.72 1404.5C759.27 1406.07 758.74 1407.63 758.04 1409.17C758.02 1409.2 758.01 1409.22 757.99 1409.25C755.08 1415.54 750.23 1420.48 744.22 1423.69C744.37 1423.75 744.52 1423.8 744.67 1423.86C744.99 1423.99 745.29 1424.08 745.61 1424.22C747.15 1424.88 748.17 1426.39 748.22 1428.07C748.26 1429.76 747.32 1431.31 745.8 1432.06C745.35 1432.27 734.63 1437.45 721.38 1437.45C717.49 1437.45 713.79 1437 710.28 1436.12L710.28 1456.12C710.28 1460.88 706.42 1464.74 701.66 1464.74C696.89 1464.74 693.03 1460.88 693.03 1456.12L693.03 1436.11C689.52 1437 685.82 1437.45 681.94 1437.45C668.67 1437.45 657.95 1432.27 657.5 1432.06C655.99 1431.31 655.05 1429.76 655.09 1428.07C655.12 1426.87 655.66 1425.78 656.52 1425C656.57 1424.95 656.62 1424.89 656.68 1424.84C652.15 1422.15 648.29 1418.42 645.42 1413.84C644.83 1412.91 644.3 1411.95 643.81 1410.97C640.33 1404.01 639.37 1396.14 641.13 1388.45C642.11 1384.17 643.9 1380.25 646.28 1376.82C646.31 1376.77 646.35 1376.73 646.38 1376.68C646.87 1375.97 647.39 1375.3 647.92 1374.63C648.24 1374.25 648.56 1373.88 648.88 1373.52C649.14 1373.23 649.39 1372.95 649.65 1372.67C651.34 1370.91 653.22 1369.36 655.24 1368C655.23 1367.8 655.2 1367.6 655.2 1367.4C655.2 1364.76 655.72 1362.23 656.62 1359.87C656.85 1359.28 657.13 1358.71 657.42 1358.14C657.62 1357.72 657.83 1357.29 658.06 1356.89C661.03 1351.69 666.07 1347.85 672.1 1346.54C672.3 1346.49 672.51 1346.47 672.71 1346.43C673.93 1343.2 675.68 1340.27 677.82 1337.67C678.6 1336.76 679.4 1335.88 680.26 1335.07C680.37 1334.96 680.48 1334.86 680.59 1334.75C686.3 1329.36 693.91 1326.02 702.19 1326.02C713.61 1326.02 723.59 1332.13 729.13 1341.23C730.1 1342.82 730.93 1344.5 731.61 1346.26C731.88 1346.3 732.14 1346.32 732.4 1346.37C740.1 1347.68 746.3 1352.96 748.87 1360.08C749 1360.45 749.09 1360.83 749.21 1361.2C749.44 1361.93 749.66 1362.68 749.82 1363.45C750.06 1364.73 750.21 1366.05 750.21 1367.4C750.21 1368.93 750 1370.42 749.68 1371.89C749.94 1372.1 750.22 1372.3 750.47 1372.53C751.44 1373.42 752.35 1374.35 753.19 1375.35C753.4 1375.59 753.6 1375.85 753.81 1376.09C760.12 1383.88 762.51 1394.41 759.75 1404.4ZM742.67 1377.35C741.51 1376.52 740.28 1375.77 738.95 1375.16C735.57 1373.61 731.97 1372.89 728.33 1373.09C727.19 1373.08 726.11 1372.66 725.3 1371.96C724.51 1371.28 724 1370.32 723.88 1369.22C723.87 1369.14 723.82 1369.07 723.81 1368.99C723.7 1366.61 725.54 1364.59 727.92 1364.47C728.11 1364.46 728.31 1364.48 728.52 1364.48C732.94 1364.35 737.4 1365.2 741.53 1366.93C741.34 1361.78 738.18 1357.44 733.65 1355.58C733.69 1356.25 733.75 1356.9 733.75 1357.57C733.75 1359.96 731.81 1361.89 729.43 1361.89C729.3 1361.89 729.19 1361.83 729.07 1361.81C726.86 1361.62 725.12 1359.83 725.12 1357.57C725.12 1355.28 724.68 1353.11 724.05 1351.02C721.21 1341.59 712.54 1334.65 702.19 1334.65C692.13 1334.65 683.36 1341.3 680.39 1350.72C680.16 1351.46 679.89 1352.18 679.73 1352.95C679.28 1355.16 677.19 1356.57 675.02 1356.31C674.89 1356.3 674.77 1356.34 674.64 1356.31C673.87 1356.16 673.24 1355.75 672.69 1355.26C668.73 1356.56 665.66 1359.73 664.45 1363.69C667.93 1362.67 671.62 1362.2 675.41 1362.39C675.53 1362.39 675.64 1362.39 675.76 1362.39C678.15 1362.53 679.97 1364.56 679.83 1366.94C679.82 1367.03 679.78 1367.1 679.77 1367.19C679.63 1368.42 678.99 1369.47 678.05 1370.16C677.28 1370.74 676.34 1371.09 675.28 1371C670.11 1370.7 665.26 1372.06 661.11 1374.53C655.43 1377.92 651.12 1383.49 649.54 1390.38C648.05 1396.89 649.18 1403.59 652.73 1409.25C656.27 1414.91 661.81 1418.85 668.32 1420.34C668.47 1420.38 668.58 1420.48 668.73 1420.52C672.24 1419.65 675.68 1419.12 679.04 1418.9C671.3 1410.17 667.95 1400.74 667.73 1400.1C667.18 1398.5 667.62 1396.73 668.84 1395.57C670.06 1394.41 671.85 1394.08 673.41 1394.69C681.74 1398.02 687.87 1402.05 692.47 1406.14C693.13 1394.39 697.48 1385.25 697.78 1384.63C697.82 1384.56 697.87 1384.51 697.91 1384.44C698.37 1383.62 699.08 1382.99 699.91 1382.61C700.5 1382.33 701.13 1382.16 701.77 1382.22C703.06 1382.25 704.24 1382.87 705.03 1383.85C705.21 1384.08 705.35 1384.33 705.48 1384.59C705.52 1384.67 705.58 1384.74 705.62 1384.83C709.08 1392.9 710.58 1399.95 710.98 1406.01C715.57 1401.97 721.66 1397.99 729.91 1394.69C731.46 1394.08 733.25 1394.41 734.48 1395.57C735.7 1396.73 736.13 1398.5 735.59 1400.1C735.37 1400.73 732.14 1409.81 724.71 1418.39C728.89 1419.27 733.23 1419.01 737.33 1417.49C743.07 1415.37 747.64 1411.13 750.2 1405.57C754.87 1395.42 751.45 1383.61 742.67 1377.35Z" />
				</g>
			</g>
		</g>
	</g>
</svg>