<svg xmlns="http://www.w3.org/2000/svg" viewBox="0 0 80 80">
  <path d="M41.033203 7C36.069707 7 32 11.069707 32 16.033203C32 20.996699 36.069707 25.066406 41.033203 25.066406C41.033203 25.066406 41.221238 25.056957 41.279297 25.056641C40.495361 26.523649 40.033203 28.210686 40.033203 30.089844C40.033203 35.188006 39.100944 38.437965 38.095703 40.574219 A 1.0001 1.0001 0 1 0 39.904297 41.425781C41.041056 39.010035 42.033203 35.433681 42.033203 30.089844C42.033203 24.495546 46.705768 21 52 21C54.692333 21 56.681657 22.2032 58.068359 23.986328C59.454263 25.768428 60.174767 28.152177 60.115234 30.326172C59.99217 33.730568 58.258412 35.652603 56.152344 37.015625L56.113281 37.041016L56.076172 37.070312C56.076172 37.070312 55.775225 37.307705 55.332031 37.552734C54.888836 37.797761 54.319667 38 54 38 A 1.0001 1.0001 0 0 0 53.007812 38.792969C52.819699 39.253641 52 41.394018 52 44C52 46.417223 54.017382 48 56 48C57.982618 48 60 46.417223 60 44C60 43.11385 59.575499 42.365092 59.0625 41.785156C58.549501 41.20522 57.927601 40.742446 57.316406 40.324219C56.83959 39.997943 56.412699 39.722605 56.009766 39.453125C56.108224 39.40286 56.210785 39.352491 56.300781 39.302734C56.879339 38.982866 57.273881 38.669361 57.292969 38.654297C57.600088 38.453376 57.903554 38.234735 58.201172 38L68 38L63 34L69 29L62.068359 29C61.93957 27.600954 61.560488 26.198705 60.945312 24.896484C63.840846 24.705533 66.130859 22.325324 66.130859 19.380859C66.130859 16.310654 63.64833 13.828125 60.578125 13.828125C60.105241 13.828125 59.670518 13.951727 59.238281 14.078125C59.244181 13.97012 59.302734 13.865923 59.302734 13.757812C59.302741 10.016973 56.287731 7 52.546875 7C50.375324 7 48.668167 8.1933683 47.457031 9.7597656C45.788373 8.0389355 43.489231 7 41.033203 7 z M 41.033203 9C43.261427 9 45.374052 10.062113 46.652344 11.804688 A 1.0001 1.0001 0 0 0 48.353516 11.660156C49.137213 10.092762 50.663084 9 52.546875 9C55.232019 9 57.302734 11.072668 57.302734 13.757812C57.302734 14.29328 57.197739 14.830712 56.972656 15.392578 A 1.0001 1.0001 0 0 0 58.457031 16.597656C59.152817 16.133221 59.925129 15.828125 60.578125 15.828125C62.59592 15.828125 64.130859 17.363065 64.130859 19.380859C64.130859 21.398654 62.59592 22.931641 60.578125 22.931641 A 1.0001 1.0001 0 0 0 60.417969 22.945312C60.430735 22.94247 60.438551 22.940549 60.400391 22.9375C60.313661 22.9306 60.123607 22.90514 59.816406 22.802734 A 1.0001 1.0001 0 0 0 59.646484 22.757812C57.942687 20.56694 55.307667 19 52 19C48.481433 19 45.109339 20.406589 42.845703 22.847656C42.124709 23.040552 41.033203 23.066406 41.033203 23.066406C37.160699 23.066406 34 19.905707 34 16.033203C34 12.160699 37.160699 9 41.033203 9 z M 53 11 A 1 1 0 0 0 52 12 A 1 1 0 0 0 53 13 A 1 1 0 0 0 54 12 A 1 1 0 0 0 53 11 z M 41 12 A 1 1 0 0 0 40 13 A 1 1 0 0 0 41 14 A 1 1 0 0 0 42 13 A 1 1 0 0 0 41 12 z M 50 13 A 1 1 0 0 0 49 14 A 1 1 0 0 0 50 15 A 1 1 0 0 0 51 14 A 1 1 0 0 0 50 13 z M 55 14 A 1 1 0 0 0 54 15 A 1 1 0 0 0 55 16 A 1 1 0 0 0 56 15 A 1 1 0 0 0 55 14 z M 38 15 A 1 1 0 0 0 37 16 A 1 1 0 0 0 38 17 A 1 1 0 0 0 39 16 A 1 1 0 0 0 38 15 z M 44 15 A 1 1 0 0 0 43 16 A 1 1 0 0 0 44 17 A 1 1 0 0 0 45 16 A 1 1 0 0 0 44 15 z M 41 18 A 1 1 0 0 0 40 19 A 1 1 0 0 0 41 20 A 1 1 0 0 0 42 19 A 1 1 0 0 0 41 18 z M 61 18 A 1 1 0 0 0 60 19 A 1 1 0 0 0 61 20 A 1 1 0 0 0 62 19 A 1 1 0 0 0 61 18 z M 54.007812 26.984375 A 2.0079999 2.0079999 0 0 0 52 28.992188 A 2.0079999 2.0079999 0 0 0 54.007812 31 A 2.0079999 2.0079999 0 0 0 56.015625 28.992188 A 2.0079999 2.0079999 0 0 0 54.007812 26.984375 z M 23 39.957031C22.028432 39.957031 21.105959 40.144308 20.253906 40.455078C20.237187 40.457964 20.260677 40.452169 20.226562 40.458984 A 1.0421043 1.0421043 0 0 0 20.126953 40.482422C17.969154 41.140098 7.7207031 43.996094 7.7207031 43.996094 A 1.0421043 1.0421043 0 1 0 8.2792969 46.003906C8.2792969 46.003906 18.2652 43.224765 20.654297 42.5C20.665037 42.4983 20.640374 42.502594 20.677734 42.496094 A 1.0421043 1.0421043 0 0 0 20.871094 42.441406C21.539463 42.185924 22.252314 42.042969 23 42.042969C24.092285 42.042969 25.10313 42.337044 25.982422 42.849609 A 1.0421043 1.0421043 0 0 0 26.089844 42.902344 A 1.0421043 1.0421043 0 0 0 26.09375 42.904297C32.387723 45.874352 45.224342 52.302574 45.255859 52.318359C45.194649 52.286589 45.199749 52.300294 45.367188 52.396484 A 1.0421043 1.0421043 0 0 0 45.392578 52.410156C46.326963 52.91386 46.957031 53.868805 46.957031 55C46.957031 55.58269 46.774896 56.113912 46.484375 56.572266C45.618949 57.933798 43.944578 58.235168 42.367188 57.472656 A 1.0421043 1.0421043 0 0 0 42.302734 57.443359L41.623047 57.169922 A 1.0421043 1.0421043 0 1 0 40.845703 59.103516L41.525391 59.376953L41.460938 59.347656C43.465283 60.316558 45.86344 60.036435 47.453125 58.533203L48.587891 59.308594 A 1.0421043 1.0421043 0 0 0 49.574219 59.412109L66.648438 52.353516L66.445312 52.353516 A 1.0421043 1.0421043 0 0 0 66.845703 52.273438C67.200369 52.125436 67.591463 52.042969 68 52.042969C69.64892 52.042969 70.957031 53.35108 70.957031 55C70.957031 56.125594 70.333635 57.074284 69.40625 57.582031 A 1.0421043 1.0421043 0 0 0 68.958984 58.929688L68.523438 58.060547L48.882812 68.488281C48.913402 68.473191 48.882938 68.485883 48.833984 68.501953 A 1.0421043 1.0421043 0 0 0 48.707031 68.554688C48.174946 68.811814 47.606239 68.957031 47 68.957031C46.419028 68.957031 45.872155 68.824652 45.357422 68.587891 A 1.0421043 1.0421043 0 0 0 45.232422 68.541016L20.40625 58.041016 A 1.0421043 1.0421043 0 0 0 19.669922 58.011719L7.6699219 62.011719 A 1.0421043 1.0421043 0 1 0 8.3300781 63.988281L19.957031 60.113281L44.4375 70.466797L44.361328 70.431641C44.460848 70.483561 44.463054 70.473618 44.505859 70.486328C45.260663 70.830743 46.103954 71.042969 47 71.042969C47.917968 71.042969 48.775319 70.817322 49.537109 70.460938C49.611591 70.436473 49.685109 70.414985 49.802734 70.357422 A 1.0421043 1.0421043 0 0 0 49.832031 70.341797L70.398438 59.423828 A 1.0421043 1.0421043 0 0 0 70.810547 59.025391C72.104966 58.117415 73.042969 56.703832 73.042969 55C73.042969 52.22692 70.77308 49.957031 68 49.957031C67.447731 49.957031 66.938365 50.106486 66.441406 50.269531 A 1.0421043 1.0421043 0 0 0 66.042969 50.349609L49.298828 57.271484L48.519531 56.738281C48.739868 56.173298 49.042969 55.642277 49.042969 55C49.042969 53.085195 47.954475 51.422515 46.380859 50.574219L46.40625 50.587891C46.49702 50.640041 46.44026 50.589891 46.248047 50.484375 A 1.0421043 1.0421043 0 0 0 46.212891 50.466797C46.212891 50.466797 33.375441 44.035852 27.005859 41.029297L26.996094 41.025391C26.96657 41.010991 26.963816 41.012461 26.943359 41.003906C25.780151 40.344979 24.433906 39.957031 23 39.957031 z M 54.455078 40.810547C54.467248 40.819147 54.474128 40.833167 54.486328 40.841797C55.028126 41.224985 55.630366 41.594711 56.185547 41.974609C56.740728 42.354507 57.244483 42.747655 57.564453 43.109375C57.884423 43.471095 58 43.74815 58 44C58 45.330777 56.963382 46 56 46C55.036618 46 54 45.330777 54 44C54 42.79436 54.227159 41.656226 54.455078 40.810547 z M 29 53C28.449 53 28 53.449 28 54C28 54.551 28.449 55 29 55C29.551 55 30 54.551 30 54C30 53.449 29.551 53 29 53 z M 32 54C31.449 54 31 54.449 31 55C31 55.551 31.449 56 32 56C32.551 56 33 55.551 33 55C33 54.449 32.551 54 32 54 z M 35 55C34.449 55 34 55.449 34 56C34 56.551 34.449 57 35 57C35.551 57 36 56.551 36 56C36 55.449 35.551 55 35 55 z M 38 56C37.449 56 37 56.449 37 57C37 57.551 37.449 58 38 58C38.551 58 39 57.551 39 57C39 56.449 38.551 56 38 56 z" fill="#5B5B5B" />
</svg>