<svg xmlns="http://www.w3.org/2000/svg" viewBox="0 0 80 80">
  <path d="M35.523438 7C35.146647 7 34.915405 7.088175 34.605469 7.2050781C34.295532 7.3219813 33.946433 7.4858587 33.546875 7.7011719C32.747759 8.1317983 31.75568 8.7721912 30.634766 9.6582031C30.122649 10.062999 29.577775 10.533 29.019531 11.042969 A 1.0001 1.0001 0 0 0 28.646484 10.998047 A 1.0001 1.0001 0 0 0 28.480469 11.023438C28.480469 11.023438 25.383039 11.70161 22.416016 13.189453C20.932504 13.933375 19.45993 14.876719 18.396484 16.136719C17.333039 17.396718 16.708573 19.079162 17.150391 20.902344C17.429716 22.166089 18.261027 25.044773 18.789062 27.019531 A 1.0001 1.0001 0 0 0 18.507812 27.128906C13.99073 29.683956 10.527678 36.699258 9.0839844 46.029297C8.7827113 47.400922 8.9448508 48.968125 9.4453125 50.615234 A 1.0001 1.0001 0 0 0 9.2890625 50.876953C9.2890625 50.876953 8 53.974292 8 58.039062C8 60.782358 9.4370891 63.129666 11.605469 64.986328C13.773848 66.84299 16.691014 68.291298 19.933594 69.441406C26.418753 71.741622 34.224829 72.83304 39.970703 73C46.866108 73.200797 52.533281 72.015246 56.271484 70.962891 A 1.0004312 1.0004312 0 0 0 55.728516 69.037109C52.120719 70.052754 46.663892 71.193203 40.029297 71C34.487171 70.83896 26.794403 69.753175 20.601562 67.556641C17.505142 66.458374 14.786621 65.076853 12.90625 63.466797C11.025879 61.85674 10 60.098269 10 58.039062C10 56.184693 10.292988 54.574898 10.582031 53.427734C11.035323 54.330138 11.567699 55.238157 12.167969 56.136719 A 1.0001 1.0001 0 1 0 13.830078 55.027344C11.642001 51.751946 10.63365 48.262834 11.037109 46.447266L11.042969 46.414062L11.048828 46.382812C12.434033 37.375054 16.019741 30.835253 19.492188 28.871094C19.941044 29.718304 20.547166 30.514476 21.310547 31.240234 A 1.0002018 1.0002018 0 0 0 21.652344 31.453125 A 1.0002018 1.0002018 0 0 0 21.996094 31.515625 A 1.0002018 1.0002018 0 0 0 22.001953 31.515625 A 1.0002018 1.0002018 0 0 0 22.796875 31.117188L22.800781 31.115234L22.800781 31.111328 A 1.0002018 1.0002018 0 0 0 22.958984 30.232422 A 1.0002018 1.0002018 0 0 0 22.689453 29.791016C21.676446 28.827933 21.050971 27.820674 20.8125 26.832031L20.810547 26.822266L20.806641 26.8125C20.272182 24.788035 19.338333 21.53628 19.099609 20.451172L19.095703 20.441406L19.09375 20.431641C18.808568 19.254822 19.14291 18.353344 19.925781 17.425781C20.708648 16.498218 21.970762 15.649392 23.3125 14.976562C24.038005 14.612751 24.769506 14.308402 25.466797 14.044922C24.612524 14.808532 23.991933 15.532462 23.591797 16.197266C23.033571 17.124727 22.869481 17.942028 22.837891 18.525391 A 1.0001 1.0001 0 0 0 22.826172 18.851562C22.826338 18.857192 22.825981 18.865542 22.826172 18.871094C22.875632 20.294514 23.635343 21.5589 24.720703 22.619141C25.806063 23.679381 27.244009 24.581415 28.884766 25.345703C32.16628 26.874278 36.261424 27.848431 39.958984 28C43.460109 28.143753 46.354136 27.523524 48.28125 26.958984 A 1.0001 1.0001 0 1 0 47.71875 25.041016C45.931864 25.564476 43.261891 26.132247 40.041016 26C36.639576 25.860569 32.723455 24.925425 29.730469 23.53125C28.233976 22.834163 26.96939 22.021932 26.117188 21.189453C25.331873 20.422315 24.93571 19.679289 24.855469 18.980469C27.318615 15.346245 29.852158 12.825492 31.875 11.226562C32.913335 10.405825 33.818319 9.8251236 34.494141 9.4609375C34.832052 9.2788445 35.115038 9.1526046 35.3125 9.078125C35.389753 9.0489862 35.445446 9.0368688 35.494141 9.0253906C35.560153 9.0560715 35.762749 9.1218407 36.005859 9.2675781C36.379387 9.4914965 36.872947 9.8315887 37.433594 10.205078C38.554887 10.952057 39.943639 11.84637 41.496094 12.304688C42.846207 12.703102 43.968633 12.416328 44.806641 12.128906C45.644648 11.841484 46.233393 11.595238 47.132812 11.673828C49.329771 11.865458 51.101323 13.374635 52.253906 14.666016 A 1.0001168 1.0001168 0 1 0 53.746094 13.333984C52.440677 11.871365 50.291682 9.9420109 47.306641 9.6816406C45.940061 9.5622307 44.917945 9.9777033 44.158203 10.238281C43.398461 10.498859 42.935387 10.644305 42.0625 10.386719C40.894955 10.042035 39.631676 9.2643335 38.542969 8.5390625C37.998615 8.176427 37.496926 7.8307222 37.033203 7.5527344C36.56948 7.2747465 36.20664 7 35.523438 7 z M 59.861328 9 A 1.0001 1.0001 0 0 0 59.097656 9.3242188C59.097656 9.3242188 58.095243 10.413952 57.099609 11.962891C56.103976 13.511829 55.048828 15.53179 55.048828 17.654297C55.04871 18.176823 55.096314 18.664234 55.169922 19.128906C54.986396 19.026424 54.796505 18.911002 54.621094 18.824219C53.911962 18.473384 53.284376 18.236261 52.826172 18.083984C52.59707 18.007844 52.409706 17.952455 52.277344 17.916016C52.211164 17.897796 52.158747 17.88445 52.121094 17.875C52.102264 17.8703 52.087152 17.865901 52.076172 17.863281C52.065192 17.860681 52.052734 17.857422 52.052734 17.857422L52.048828 17.859375 A 1.0001 1.0001 0 0 0 51.830078 17.832031C51.830078 17.832031 51.817856 17.934609 51.816406 17.947266L51.015625 18.253906C50.269949 19.303273 49.987955 20.740326 50 22.287109C50.01205 23.833893 50.357238 25.49065 51.216797 26.865234C51.241978 26.905496 51.271121 26.940899 51.296875 26.980469L51.015625 27.087891C50.26995 28.137257 49.987955 29.57431 50 31.121094C50.01205 32.667877 50.357238 34.324635 51.216797 35.699219C51.24149 35.738701 51.269677 35.773684 51.294922 35.8125L51.015625 35.919922C50.269947 36.969288 49.987955 38.408295 50 39.955078C50.01205 41.501861 50.357238 43.156666 51.216797 44.53125 A 1.0001 1.0001 0 0 0 51.216797 44.533203C51.24149 44.572685 51.269677 44.60767 51.294922 44.646484L51.015625 44.753906C50.269949 45.803273 49.987955 47.240326 50 48.787109C50.01205 50.333893 50.357238 51.99065 51.216797 53.365234C51.270462 53.451039 51.330498 53.528655 51.386719 53.611328L51.015625 53.753906C50.269949 54.803273 49.987955 56.240326 50 57.787109C50.01205 59.333893 50.357238 60.99065 51.216797 62.365234C52.244975 64.009171 53.758139 65.073783 55.146484 65.738281C56.53483 66.402779 57.722034 66.689453 58.572266 66.689453 A 1.0001 1.0001 0 0 0 58.832031 66.654297L58.832031 71 A 1.0001 1.0001 0 1 0 60.832031 71L60.832031 66.654297 A 1.0001 1.0001 0 0 0 61.095703 66.691406C61.945935 66.691406 63.132994 66.402783 64.521484 65.738281C65.909974 65.07378 67.423445 64.009367 68.451172 62.365234C69.310731 60.99065 69.655923 59.335847 69.667969 57.789062C69.680019 56.24228 69.398019 54.803273 68.652344 53.753906 A 1.0001 1.0001 0 0 0 68.367188 53.486328C68.394253 53.444805 68.424739 53.407521 68.451172 53.365234C69.310731 51.99065 69.655923 50.335847 69.667969 48.789062C69.680019 47.24228 69.398019 45.803273 68.652344 44.753906 A 1.0001 1.0001 0 0 0 68.445312 44.539062C68.447066 44.536266 68.449422 44.53405 68.451172 44.53125C69.310697 43.156721 69.655923 41.50175 69.667969 39.955078C69.680019 38.408406 69.397675 36.971451 68.652344 35.921875 A 1.0001 1.0001 0 0 0 68.445312 35.707031C68.447066 35.704235 68.449422 35.702019 68.451172 35.699219C69.310697 34.32469 69.655923 32.667766 69.667969 31.121094C69.680019 29.574422 69.397675 28.137467 68.652344 27.087891 A 1.0001 1.0001 0 0 0 68.445312 26.873047C68.447066 26.87025 68.449422 26.868034 68.451172 26.865234C69.310731 25.49065 69.655923 23.835846 69.667969 22.289062C69.680019 20.742279 69.398019 19.303273 68.652344 18.253906 A 1.0001 1.0001 0 0 0 67.609375 17.859375C67.609375 17.859375 66.185902 18.208278 64.490234 19.160156C64.568923 18.685597 64.619141 18.186567 64.619141 17.652344C64.619742 15.530524 63.563872 13.511583 62.568359 11.962891C61.572841 10.414199 60.570313 9.3242188 60.570312 9.3242188 A 1.0001 1.0001 0 0 0 59.861328 9 z M 59.833984 11.652344C60.177431 12.068665 60.357312 12.224377 60.884766 13.044922C61.782003 14.44073 62.619539 16.246164 62.619141 17.652344C62.619141 19.584107 61.939817 20.891678 61.208984 21.748047C60.843568 22.176231 60.459926 22.484771 60.162109 22.673828C60.036667 22.753461 59.918341 22.789944 59.828125 22.820312C59.737878 22.790362 59.620941 22.755198 59.496094 22.677734C59.199258 22.493563 58.818876 22.191896 58.455078 21.769531C57.727483 20.924802 57.048382 19.622002 57.048828 17.654297C57.048828 16.246804 57.883883 14.440984 58.78125 13.044922C59.308926 12.223999 59.490535 12.068657 59.833984 11.652344 z M 34.609375 13.390625C33.865375 13.390625 33.261719 13.993281 33.261719 14.738281C33.261719 15.482281 33.864375 16.087891 34.609375 16.087891C35.353375 16.087891 35.957031 15.483281 35.957031 14.738281C35.957031 13.994281 35.353375 13.390625 34.609375 13.390625 z M 31.912109 17.435547C31.168109 17.435547 30.564453 18.038203 30.564453 18.783203C30.564453 19.527203 31.167109 20.130859 31.912109 20.130859C32.656109 20.130859 33.261719 19.528203 33.261719 18.783203C33.261719 18.038203 32.656109 17.435547 31.912109 17.435547 z M 37.304688 17.435547C36.560688 17.435547 35.955078 18.038203 35.955078 18.783203C35.955078 19.527203 36.559688 20.130859 37.304688 20.130859C38.049687 20.130859 38.652344 19.528203 38.652344 18.783203C38.652344 18.038203 38.049687 17.435547 37.304688 17.435547 z M 52.490234 20.103516C52.848657 20.231778 53.242023 20.373601 53.734375 20.617188C54.736814 21.113131 55.896077 21.878649 56.845703 22.955078C56.877409 22.993503 56.907486 23.037105 56.939453 23.074219C56.964583 23.103394 56.990385 23.121999 57.015625 23.150391C57.139954 23.300565 57.262063 23.455363 57.376953 23.617188C57.897147 24.735781 58.286893 26.073676 58.375 27.201172C58.44801 28.135531 58.214844 28.639977 57.994141 29.019531C57.517432 28.941481 56.895668 28.857609 56.009766 28.433594C55.908222 28.384992 55.807044 28.319231 55.705078 28.265625C55.492593 28.132425 55.291411 28.028671 55.085938 27.916016C54.256789 27.389647 53.468611 26.694467 52.912109 25.804688C52.319668 24.857271 52.009705 23.517701 52 22.271484C51.9926 21.3266 52.256826 20.679968 52.490234 20.103516 z M 67.1875 20.150391C67.414129 20.727557 67.675175 21.348095 67.667969 22.273438C67.658269 23.519654 67.3483 24.859225 66.755859 25.806641C65.994586 27.024508 64.802213 27.888048 63.658203 28.435547C62.770615 28.860327 62.146033 28.943806 61.669922 29.021484C61.444367 28.640087 61.209057 28.137473 61.275391 27.210938C61.355421 26.093052 61.735148 24.766504 62.253906 23.650391C63.888659 21.345986 66.146406 20.488386 67.1875 20.150391 z M 52.490234 28.9375C52.848657 29.065762 53.242023 29.207586 53.734375 29.451172C53.823555 29.495292 53.920274 29.557106 54.011719 29.605469C54.246581 29.754046 54.478662 29.877381 54.712891 30.001953C55.652536 30.590274 56.625343 31.392517 57.376953 32.451172C57.897147 33.569765 58.286893 34.907661 58.375 36.035156C58.44801 36.969515 58.214844 37.473961 57.994141 37.853516C57.517432 37.775466 56.895668 37.691594 56.009766 37.267578C55.912317 37.220937 55.814647 37.158671 55.716797 37.107422C55.495669 36.968334 55.285805 36.85899 55.072266 36.742188C54.247928 36.216764 53.465688 35.523778 52.912109 34.638672C52.319668 33.691256 52.009705 32.351685 52 31.105469C51.9926 30.160585 52.256826 29.513953 52.490234 28.9375 z M 67.1875 28.982422C67.414224 29.559898 67.675175 30.18023 67.667969 31.105469C67.658269 32.351547 67.348335 33.691201 66.755859 34.638672C65.994586 35.856539 64.802213 36.72008 63.658203 37.267578C62.770615 37.692359 62.146033 37.775837 61.669922 37.853516C61.444945 37.472202 61.209123 36.970621 61.275391 36.044922C61.355391 34.927454 61.735579 33.600115 62.253906 32.484375C63.04267 31.372491 63.975513 30.603375 64.847656 30.060547C65.118243 29.920378 65.388162 29.775704 65.660156 29.603516C66.269891 29.299802 66.810052 29.104951 67.1875 28.982422 z M 25.453125 31.527344L24.652344 31.929688L24.494141 32.810547L25.107422 33.466797L25.453125 33.527344L26.255859 33.126953L26.412109 32.244141L25.800781 31.589844L25.453125 31.527344 z M 29.111328 33.138672L28.310547 33.541016L28.152344 34.421875L28.765625 35.076172L29.111328 35.138672L29.914062 34.738281L30.070312 33.855469L29.458984 33.201172L29.111328 33.138672 z M 32.945312 34.269531L32.144531 34.669922L31.986328 35.552734L32.599609 36.207031L32.945312 36.269531L33.746094 35.867188L33.904297 34.986328L33.292969 34.332031L32.945312 34.269531 z M 44.857422 34.476562L44.056641 34.878906L43.898438 35.759766L44.509766 36.414062L44.857422 36.476562L45.658203 36.076172L45.816406 35.193359L45.205078 34.539062L44.857422 34.476562 z M 36.894531 34.888672L36.09375 35.291016L35.935547 36.171875L36.546875 36.826172L36.894531 36.888672L37.695312 36.488281L37.853516 35.605469L37.240234 34.951172L36.894531 34.888672 z M 40.890625 34.947266L40.087891 35.349609L39.931641 36.230469L40.542969 36.884766L40.890625 36.947266L41.691406 36.546875L41.849609 35.664062L41.236328 35.009766L40.890625 34.947266 z M 52.490234 37.769531C52.848735 37.897804 53.241802 38.039509 53.734375 38.283203C53.81961 38.325372 53.912685 38.383626 54 38.429688C54.242852 38.583803 54.48243 38.713357 54.724609 38.841797C55.660694 39.430054 56.628405 40.230814 57.376953 41.285156C57.897147 42.403749 58.286893 43.741645 58.375 44.869141C58.44808 45.80428 58.215135 46.308196 57.994141 46.6875C57.517432 46.60945 56.895668 46.525579 56.009766 46.101562C55.912317 46.054921 55.814647 45.992656 55.716797 45.941406C55.495656 45.802422 55.285815 45.692924 55.072266 45.576172C54.247928 45.050748 53.465688 44.357763 52.912109 43.472656C52.319668 42.52524 52.009705 41.18567 52 39.939453C51.9926 38.993759 52.256546 38.345938 52.490234 37.769531 z M 67.1875 37.814453C67.414297 38.391926 67.675176 39.014006 67.667969 39.939453C67.658269 41.185531 67.348335 42.525185 66.755859 43.472656C65.994586 44.690523 64.802213 45.554065 63.658203 46.101562C62.770615 46.526344 62.146033 46.609822 61.669922 46.6875C61.44462 46.306463 61.209069 45.80527 61.275391 44.878906C61.355421 43.761 61.735082 42.433086 62.253906 41.316406C63.038184 40.210861 63.96423 39.444701 64.832031 38.902344C65.110278 38.758744 65.388192 38.609114 65.667969 38.431641C66.274299 38.130323 66.811846 37.936386 67.1875 37.814453 z M 45.921875 42.556641L45.121094 42.957031L44.962891 43.839844L45.574219 44.494141L45.921875 44.556641L46.722656 44.154297L46.880859 43.273438L46.269531 42.619141L45.921875 42.556641 z M 41.990234 43.28125L41.189453 43.681641L41.03125 44.564453L41.642578 45.21875L41.990234 45.28125L42.791016 44.878906L42.949219 43.996094L42.337891 43.341797L41.990234 43.28125 z M 38 43.525391L37.199219 43.927734L37.041016 44.808594L37.652344 45.464844L38 45.525391L38.800781 45.125L38.958984 44.242188L38.347656 43.587891L38 43.525391 z M 52.490234 46.603516C52.848657 46.731778 53.242023 46.873601 53.734375 47.117188C53.823555 47.161308 53.920274 47.223121 54.011719 47.271484C54.246581 47.419934 54.478662 47.543457 54.712891 47.667969C55.652536 48.25629 56.625343 49.058533 57.376953 50.117188C57.897147 51.23578 58.286893 52.573676 58.375 53.701172C58.44801 54.635531 58.214844 55.139977 57.994141 55.519531C57.517432 55.441481 56.895668 55.357609 56.009766 54.933594C54.865861 54.386092 53.673931 53.52275 52.912109 52.304688C52.319668 51.35727 52.009705 50.017701 52 48.771484C51.9926 47.8266 52.256826 47.179968 52.490234 46.603516 z M 67.1875 46.650391C67.414129 47.227557 67.675175 47.848095 67.667969 48.773438C67.658269 50.019653 67.3483 51.359225 66.755859 52.306641C65.994586 53.524508 64.802213 54.388048 63.658203 54.935547C62.770615 55.360327 62.146033 55.443806 61.669922 55.521484C61.444367 55.140087 61.209057 54.637473 61.275391 53.710938C61.355421 52.593052 61.735148 51.266504 62.253906 50.150391C63.04261 49.038606 63.975521 48.268933 64.847656 47.726562C65.11557 47.587779 65.383009 47.445552 65.652344 47.275391C66.265478 46.969603 66.808293 46.773501 67.1875 46.650391 z M 52.490234 55.603516C52.848657 55.731778 53.242023 55.873601 53.734375 56.117188C54.932251 56.709821 56.358075 57.682081 57.376953 59.117188C57.897147 60.23578 58.286893 61.573676 58.375 62.701172C58.44801 63.635531 58.214844 64.139977 57.994141 64.519531C57.517432 64.441481 56.895668 64.357609 56.009766 63.933594C54.865861 63.386092 53.673931 62.52275 52.912109 61.304688C52.319668 60.35727 52.009705 59.017701 52 57.771484C51.9926 56.8266 52.256826 56.179968 52.490234 55.603516 z M 67.1875 55.650391C67.414129 56.227557 67.675175 56.848095 67.667969 57.773438C67.658269 59.019653 67.3483 60.359225 66.755859 61.306641C65.994586 62.524508 64.802213 63.388048 63.658203 63.935547C62.770615 64.360327 62.146033 64.443806 61.669922 64.521484C61.444367 64.140087 61.209057 63.637474 61.275391 62.710938C61.355421 61.593052 61.735148 60.266504 62.253906 59.150391C63.888659 56.845986 66.146406 55.988386 67.1875 55.650391 z M 58.832031 57.654297L58.832031 57.773438C58.805545 57.738205 58.77679 57.706606 58.75 57.671875 A 1.0001 1.0001 0 0 0 58.832031 57.654297 z M 60.832031 57.654297 A 1.0001 1.0001 0 0 0 60.90625 57.671875C60.881606 57.703551 60.856406 57.73352 60.832031 57.765625L60.832031 57.654297 z M 15.486328 57.710938L14.683594 58.111328L14.527344 58.994141L15.138672 59.648438L15.486328 59.710938L16.287109 59.308594L16.445312 58.427734L15.832031 57.771484L15.486328 57.710938 z M 18.431641 60.408203L17.630859 60.808594L17.472656 61.691406L18.083984 62.345703L18.431641 62.408203L19.232422 62.005859L19.390625 61.125L18.777344 60.470703L18.431641 60.408203 z M 21.833984 62.492188L21.033203 62.892578L20.875 63.775391L21.488281 64.429688L21.833984 64.492188L22.634766 64.089844L22.792969 63.208984L22.181641 62.554688L21.833984 62.492188 z" fill="#5B5B5B" />
</svg>