<svg xmlns="http://www.w3.org/2000/svg" viewBox="0 0 50 50">
  <path d="M24.984375 1.9941406 A 1.0001 1.0001 0 0 0 24.404297 2.1816406L3.5351562 13.113281 A 1.0001 1.0001 0 0 0 3 14L3 45 A 1.0001 1.0001 0 0 0 4 46L46 46 A 1.0001 1.0001 0 0 0 47 45L47 14 A 1.0001 1.0001 0 0 0 46.464844 13.113281L25.597656 2.1816406 A 1.0001 1.0001 0 0 0 24.986328 1.9941406 A 1.0001 1.0001 0 0 0 24.984375 1.9941406 z M 25 4.1308594L45 14.605469L45 44L5 44L5 14.605469L25 4.1308594 z M 19.5 13C15.921732 13 13 15.921732 13 19.5C13 22.694635 15.331248 25.358454 18.376953 25.894531C18.055574 26.726787 17.871094 27.623788 17.871094 28.5625C17.871094 31.821083 17.190495 34.221736 16.568359 35.537109 A 1.0001 1.0001 0 1 0 18.376953 36.390625C19.154817 34.745998 19.871094 32.095917 19.871094 28.5625C19.871094 25.170659 22.949439 22.433245 26.556641 23.101562C29.118483 23.615067 31.069893 26.072054 30.998047 28.703125C30.922927 30.788216 29.891533 31.912103 28.580078 32.759766C28.548216 32.777557 28.040427 33.061422 27.457031 33.28125 A 1.0001 1.0001 0 0 0 27.453125 33.283203C27.450094 33.284343 27.448348 33.285973 27.445312 33.287109 A 1.0001 1.0001 0 0 0 27.355469 33.324219 A 1.0001 1.0001 0 0 0 27.353516 33.326172 A 1.0001 1.0001 0 0 0 27.273438 33.369141 A 1.0001 1.0001 0 0 0 26.867188 33.822266C26.846886 33.85554 26.831176 33.881115 26.806641 33.923828C26.712811 34.087184 26.593414 34.318004 26.474609 34.607422C26.237033 35.186267 26 36.006932 26 37C26 37.776302 26.219448 38.490647 26.646484 39.046875C27.073521 39.603103 27.750934 40 28.5 40C29.11452 40 29.777016 39.799312 30.265625 39.3125C30.754234 38.825688 31 38.108333 31 37.332031C31 36.19375 30.302757 35.398203 29.742188 34.845703C29.587328 34.693073 29.590936 34.695361 29.457031 34.560547C29.492777 34.540819 29.603516 34.482422 29.603516 34.482422L29.626953 34.46875L29.650391 34.453125C29.972323 34.245859 30.287382 34.000774 30.59375 33.734375L35.517578 35L33.126953 31.667969L38 29.417969L32.988281 28.28125C32.957057 27.446586 32.783694 26.639281 32.492188 25.880859C34.491892 25.424536 36 23.631997 36 21.5C36 19.136489 34.133121 17.231646 31.810547 17.0625C31.629167 16.114352 31.265652 15.194309 30.537109 14.464844 A 1.0001 1.0001 0 0 0 30.535156 14.464844C28.590932 12.52062 25.409068 12.52062 23.464844 14.464844C23.453494 14.476194 23.446777 14.490513 23.435547 14.501953C22.327507 13.628965 21.014149 13 19.5 13 z M 27 14.994141C27.765603 14.994141 28.531206 15.289018 29.121094 15.878906C29.717321 16.476643 30.005359 17.246645 29.994141 18.021484 A 1.0001 1.0001 0 0 0 31.138672 19.025391C31.254408 19.008556 31.374512 19 31.5 19C32.892562 19 34 20.107438 34 21.5C34 22.892562 32.892562 24 31.5 24L31.449219 24C30.363379 22.562879 28.783244 21.503523 26.941406 21.136719L26.935547 21.136719L26.929688 21.134766C23.915263 20.572073 21.10897 21.832396 19.441406 23.994141C16.971778 23.962274 15 21.977634 15 19.5C15 17.002268 17.002268 15 19.5 15C20.85008 15 22.049248 15.586779 22.875 16.521484 A 1.0001 1.0001 0 0 0 24.476562 16.382812C24.578539 16.216323 24.716528 16.041284 24.878906 15.878906C25.468794 15.289018 26.234397 14.994141 27 14.994141 z M 27.5 26 A 1.5 1.5 0 0 0 26 27.5 A 1.5 1.5 0 0 0 27.5 29 A 1.5 1.5 0 0 0 29 27.5 A 1.5 1.5 0 0 0 27.5 26 z M 28.179688 36.09375C28.231838 36.14013 28.289334 36.223626 28.337891 36.271484C28.784571 36.711734 29 37.053312 29 37.332031C29 37.722729 28.90866 37.841547 28.853516 37.896484C28.798375 37.951422 28.71048 38 28.5 38C28.424066 38 28.351088 37.980147 28.234375 37.828125C28.117662 37.676103 28 37.390698 28 37C28 36.626402 28.107629 36.390203 28.179688 36.09375 z" fill="#5B5B5B" />
</svg>