<svg xmlns="http://www.w3.org/2000/svg" viewBox="0 0 100 100">
  <path d="M67.5 12C64.468 12 62 14.467 62 17.5C62 18.838 62.480937 20.094984 63.335938 21.083984C58.669937 25.094984 55.820313 32.021828 54.320312 35.673828C53.748312 37.066828 52.496781 38.002234 51.050781 38.115234C44.348781 38.646234 38.513266 40.943266 33.697266 44.947266C32.433266 44.542266 30.406562 41.849172 28.601562 39.451172C25.266563 35.020172 21.485 30 17 30C16.571 30 16.189734 30.274641 16.052734 30.681641C16.021734 30.774641 12.879219 40.161797 11.074219 51.341797C10.728219 53.483797 11.79175 55.591844 13.71875 56.589844C18.10575 58.860844 28.347406 61.962578 31.066406 62.767578C31.669406 66.590578 36.33 74.152875 42 76.671875L42 78C42 78.265 42.104969 78.520031 42.292969 78.707031C43.135969 79.550031 44.253937 80.082922 45.335938 80.419922L45.931641 84.591797C45.043641 84.849797 44.561484 85.100094 44.521484 85.121094C44.039484 85.384094 43.861094 85.985703 44.121094 86.470703C44.380094 86.955703 44.984656 87.139812 45.472656 86.882812C45.488656 86.873812 47.184 86 50.5 86C53.816 86 55.511484 86.873906 55.521484 86.878906C55.673484 86.961906 55.836047 87 55.998047 87C56.352047 87 56.696906 86.811516 56.878906 86.478516C57.143906 85.993516 56.963516 85.386094 56.478516 85.121094C56.394516 85.075094 54.377 84 50.5 84C49.507 84 48.640578 84.072734 47.892578 84.177734L47.419922 80.875C48.301922 80.996 48.933 81 49 81C49.315 81 49.611781 80.851609 49.800781 80.599609C50.944781 79.075609 52.653844 77.093203 54.339844 75.533203C55.159844 77.210203 56.074094 78.891516 56.121094 78.978516C56.219094 79.157516 56.369734 79.302531 56.552734 79.394531C56.676734 79.456531 57.799 80 59 80C59.393 80 59.753844 79.983078 60.089844 79.955078L60.849609 82.617188C60.017609 82.866187 59.560484 83.100094 59.521484 83.121094C59.036484 83.386094 58.856094 83.993516 59.121094 84.478516C59.386094 84.962516 59.995516 85.142906 60.478516 84.878906C60.495516 84.869906 62.181 84 65.5 84C68.816 84 70.511484 84.873906 70.521484 84.878906C70.673484 84.961906 70.836047 85 70.998047 85C71.352047 85 71.696906 84.811516 71.878906 84.478516C72.143906 83.993516 71.963516 83.386094 71.478516 83.121094C71.394516 83.075094 69.377 82 65.5 82C64.467 82 63.577547 82.078406 62.810547 82.191406L62.064453 79.580078C63.088453 79.252078 63.581031 78.833031 63.707031 78.707031C63.827031 78.587031 63.915891 78.438391 63.962891 78.275391C63.974891 78.233391 65.161266 74.111062 66.572266 71.414062C74.436266 68.214063 80 60.5 80 51.5C80 49.111 79.621953 46.771828 78.876953 44.548828C78.398953 43.119828 78.078203 41.679813 77.908203 40.257812C79.407203 39.668813 80.5 37.994 80.5 36C80.5 34.92 80.127469 33.794625 79.730469 32.890625C80.099469 32.765625 81.062562 32.5 82.601562 32.5L82.648438 32.5C83.676438 32.504 85.169344 32.893266 86.277344 33.447266C86.348344 33.482266 86.424953 33.5 86.501953 33.5C86.619953 33.5 86.735125 33.458906 86.828125 33.378906C86.980125 33.245906 87.037609 33.033797 86.974609 32.841797C85.488609 28.381797 81.678078 26.753469 79.955078 26.230469C79.850078 25.056469 79.525437 23.948266 79.023438 22.947266C80.703438 22.692266 82 21.251 82 19.5C82 17.404 80.104 15.712063 78 16.039062L78 16C78 13.794 76.206 12 74 12C72.866 12 71.797922 12.479687 71.044922 13.304688C70.052922 12.459687 68.812 12 67.5 12 z M 67.5 13C68.729 13 69.878281 13.493672 70.738281 14.388672C70.842281 14.497672 70.990578 14.553063 71.142578 14.539062C71.292578 14.526063 71.429672 14.445312 71.513672 14.320312C72.073672 13.493313 73.003 13 74 13C75.654 13 77 14.346 77 16C77 16.205 76.9785 16.408469 76.9375 16.605469C76.9015 16.784469 76.965469 16.969891 77.105469 17.087891C77.245469 17.207891 77.436422 17.238875 77.607422 17.171875C79.302422 16.520875 81.001 17.826047 81 19.498047C81 20.876047 79.879 21.998047 78.5 21.998047L78.476562 21.998047C76.973562 19.730047 74.496109 18.189531 71.662109 18.019531C68.759109 17.842531 66.259234 18.835078 64.115234 20.455078C63.401234 19.643078 63 18.606 63 17.5C63 15.019 65.019 13 67.5 13 z M 70.763672 20.005859C71.019585 19.997311 71.278234 20.000719 71.541016 20.015625C75.033016 20.225625 77.742422 22.982359 77.982422 26.568359C77.992422 26.712359 77.990187 26.850516 77.992188 26.978516L75.105469 30.691406C75.103469 30.694406 75.103562 30.698172 75.101562 30.701172C75.099563 30.704172 75.09675 30.704031 75.09375 30.707031C75.00875 30.827031 73 33.657 73 36C73 38.132 74.24425 39.914 75.90625 40.375C76.08925 41.97 76.445469 43.585594 76.980469 45.183594C77.656469 47.202594 78 49.328 78 51.5C78 62.252 69.252 71 58.5 71C54.988 71 49.937484 77.157516 48.521484 78.978516C47.556484 78.912516 45.356 78.644688 44 77.554688L44 76C44 75.582 43.739656 75.2075 43.347656 75.0625C37.700656 72.9775 33 64.531 33 62C33 61.555 32.706297 61.163062 32.279297 61.039062C32.151297 61.002063 19.438672 57.2985 14.638672 54.8125C13.479672 54.2125 12.842781 52.945203 13.050781 51.658203C14.071781 45.330203 15.526938 39.588078 16.585938 35.830078C19.020937 37.537078 21.333344 40.605516 23.402344 43.353516C24.536344 44.860516 25.607281 46.282047 26.613281 47.373047C26.711281 47.479047 26.845469 47.535156 26.980469 47.535156C27.102469 47.535156 27.224312 47.491344 27.320312 47.402344C27.523312 47.215344 27.534656 46.899313 27.347656 46.695312C26.375656 45.642313 25.319172 44.237953 24.201172 42.751953C22.010172 39.840953 19.550094 36.593078 16.871094 34.830078C17.225094 33.608078 17.517031 32.664453 17.707031 32.064453C20.972031 32.644453 24.296906 37.06025 27.003906 40.65625C29.671906 44.20025 31.779 47 34 47C34.239 47 34.469391 46.915766 34.650391 46.759766C39.203391 42.855766 44.775031 40.617375 51.207031 40.109375C53.408031 39.935375 55.310922 38.525641 56.169922 36.431641C58.185891 31.526859 62.830374 20.270871 70.763672 20.005859 z M 73.5 25 A 1.5 1.5 0 0 0 72 26.5 A 1.5 1.5 0 0 0 73.5 28 A 1.5 1.5 0 0 0 75 26.5 A 1.5 1.5 0 0 0 73.5 25 z M 79.199219 27.058594C80.238219 27.321594 83.838938 28.469219 85.585938 32.074219C84.581937 31.720219 83.501344 31.503 82.652344 31.5L82.599609 31.5C80.871609 31.5 79.780609 31.811844 79.349609 31.964844L76.306641 30.777344L79.199219 27.058594 z M 75.691406 31.611328L78.554688 32.726562C78.908688 33.435563 79.5 34.799 79.5 36C79.5 37.93 78.267 39.5 76.75 39.5C75.233 39.5 74 37.93 74 36C74 34.391 75.194406 32.379328 75.691406 31.611328 z M 60.5 41C60.224 41 60 41.224 60 41.5C60 41.776 60.224 42 60.5 42C61.138 42 61.772625 42.070937 62.390625 42.210938C62.427625 42.218937 62.464 42.222656 62.5 42.222656C62.729 42.222656 62.934328 42.065984 62.986328 41.833984C63.047328 41.563984 62.879375 41.295375 62.609375 41.234375C61.921375 41.078375 61.212 41 60.5 41 z M 64.53125 41.935547C64.337141 41.923406 64.143781 42.026891 64.050781 42.212891C63.928781 42.459891 64.030344 42.759812 64.277344 42.882812C67.190344 44.330813 69 47.249 69 50.5C69 53.79 66.104 61 57.5 61L36.707031 61L38.853516 58.853516C38.996516 58.710516 39.040891 58.495594 38.962891 58.308594C38.885891 58.121594 38.702 58 38.5 58L36.707031 58L38.853516 55.853516C38.996516 55.710516 39.040891 55.495594 38.962891 55.308594C38.885891 55.121594 38.702 55 38.5 55L36.707031 55L38.853516 52.853516C39.048516 52.658516 39.048516 52.341484 38.853516 52.146484C38.658516 51.951484 38.341484 51.951484 38.146484 52.146484L35.146484 55.146484C35.003484 55.289484 34.959109 55.504406 35.037109 55.691406C35.114109 55.878406 35.298 56 35.5 56L37.292969 56L35.146484 58.146484C35.003484 58.289484 34.959109 58.504406 35.037109 58.691406C35.114109 58.878406 35.298 59 35.5 59L37.292969 59L35.146484 61.146484C35.003484 61.289484 34.959109 61.504406 35.037109 61.691406C35.114109 61.878406 35.298 62 35.5 62L57.5 62C61.416 62 70 59.104 70 50.5C70 46.867 67.978656 43.605281 64.722656 41.988281C64.661406 41.957531 64.595953 41.939594 64.53125 41.935547 z M 28.425781 47.939453C28.299781 47.962203 28.182016 48.032984 28.103516 48.146484C27.945516 48.373484 28.001516 48.684797 28.228516 48.841797C28.611516 49.107797 28.967406 49.289531 29.316406 49.394531C29.364406 49.409531 29.414891 49.414062 29.462891 49.414062C29.677891 49.414062 29.876406 49.276547 29.941406 49.060547C30.021406 48.796547 29.870469 48.5165 29.605469 48.4375C29.361469 48.3635 29.091781 48.224484 28.800781 48.021484C28.687281 47.941984 28.551781 47.916703 28.425781 47.939453 z M 63.964844 72.269531C63.075844 74.355531 62.387672 76.555719 62.138672 77.386719C61.774672 77.593719 60.83 78 59 78C58.547 78 58.040797 77.845703 57.716797 77.720703C57.377797 77.089703 56.573969 75.574172 55.917969 74.201172C56.901969 73.469172 57.808 73 58.5 73C60.391 73 62.216844 72.730531 63.964844 72.269531 z" fill="#5B5B5B" />
</svg>