<svg xmlns="http://www.w3.org/2000/svg" viewBox="0 0 16 16">
  <path d="M7.9882812 2L8.0117188 3C8.0117188 3 8.5788334 2.9914901 9.1113281 3.1445312C9.3775755 3.2210512 9.6210962 3.3373652 9.7714844 3.4746094C9.9218721 3.6118536 10 3.7425407 10 4L10 12C10 12.257459 9.921872 12.388146 9.7714844 12.525391C9.6210962 12.662635 9.3775755 12.778949 9.1113281 12.855469C8.5788334 13.008508 8.0117187 13 8.0117188 13L7.9882812 14C7.9882812 14 8.6711666 14.02262 9.3886719 13.816406C9.7474249 13.713301 10.128904 13.554209 10.447266 13.263672C10.472572 13.240577 10.493408 13.210604 10.517578 13.185547C10.531038 13.198419 10.542884 13.214267 10.556641 13.226562C10.872197 13.508608 11.248208 13.670502 11.603516 13.779297C12.31413 13.996887 12.994141 14 12.994141 14L13.005859 13C13.005859 13 12.43587 12.98742 11.896484 12.822266C11.626792 12.739686 11.377803 12.617393 11.224609 12.480469C11.071414 12.343545 11 12.22543 11 12L11 4C11 3.7745698 11.071416 3.6564556 11.224609 3.5195312C11.377803 3.3826071 11.626792 3.2603143 11.896484 3.1777344C12.43587 3.0125746 13.005859 3 13.005859 3L12.994141 2C12.994141 2 12.31413 2.00311 11.603516 2.2207031C11.248208 2.3294982 10.872197 2.491393 10.556641 2.7734375C10.542884 2.7857329 10.531038 2.8015813 10.517578 2.8144531C10.493408 2.7893965 10.472572 2.759423 10.447266 2.7363281C10.128904 2.4457911 9.7474245 2.2866993 9.3886719 2.1835938C8.6711666 1.9773826 7.9882814 2 7.9882812 2 z M 2.5 5C1.6774686 5 1 5.6774686 1 6.5L1 9.5C1 10.322531 1.6774686 11 2.5 11L9 11L9 10L2.5 10C2.2185314 10 2 9.7814686 2 9.5L2 6.5C2 6.2185314 2.2185314 6 2.5 6L9 6L9 5L2.5 5 z M 12 5L12 6L13.5 6C13.781469 6 14 6.2185314 14 6.5L14 9.5C14 9.7814686 13.781469 10 13.5 10L12 10L12 11L13.5 11C14.322531 11 15 10.322531 15 9.5L15 6.5C15 5.6774686 14.322531 5 13.5 5L12 5 z M 3 7L3 9L7 9L7 7L3 7 z" fill="#5B5B5B" />
</svg>