<svg xmlns="http://www.w3.org/2000/svg" viewBox="0 0 48 48"><path fill="#607D8B" d="M13.1,33c-0.7,0-1.2-0.5-1.3-1.2L9.2,9.7C9,8.1,7.7,7,6.2,7H5v2h1.2c0.5,0,0.9,0.4,1,0.9l2.6,22.2c0.2,1.7,1.6,2.9,3.3,2.9H24v-2H13.1z"/><path fill="#FFC107" d="M14 31H43V35H14z"/><path fill="#37474F" d="M38 35A3 3 0 1 0 38 41 3 3 0 1 0 38 35zM19 35A3 3 0 1 0 19 41 3 3 0 1 0 19 35z"/><path fill="#607D8B" d="M38 37A1 1 0 1 0 38 39 1 1 0 1 0 38 37zM19 37A1 1 0 1 0 19 39 1 1 0 1 0 19 37z"/><path fill="#FF9800" d="M38,31H18c-1.1,0-2-0.9-2-2V9c0-1.1,0.9-2,2-2h20c1.1,0,2,0.9,2,2v20C40,30.1,39.1,31,38,31z"/><path fill="#8A5100" d="M30 11h-4c-.6 0-1-.4-1-1v0c0-.6.4-1 1-1h4c.6 0 1 .4 1 1v0C31 10.6 30.6 11 30 11zM30 24h-4c-.6 0-1-.4-1-1v0c0-.6.4-1 1-1h4c.6 0 1 .4 1 1v0C31 23.6 30.6 24 30 24z"/><path fill="#C77600" d="M16 18H40V20H16z"/></svg>