<svg xmlns="http://www.w3.org/2000/svg" viewBox="0 0 80 80">
  <path d="M41 7.753906L39.328125 9.257813C39.328125 9.257813 29 18.332031 29 29L31 29C31 22.109375 36.242188 15.496094 39 12.480469L39 18C39 20.199219 40.800781 22 43 22C44.347656 22 45.484375 21.28125 46.210938 20.25C47.738281 23.078125 49 26.125 49 29L51 29C51 24.78125 49.023438 20.574219 46.84375 17.109375L45 14.171875L45 18C45 19.117188 44.117188 20 43 20C41.882813 20 41 19.117188 41 18 Z M 11 31C9.355469 31 8 32.355469 8 34C8 35.425781 9.09375 36.46875 10.4375 36.765625C11.863281 45.660156 17.183594 53.253906 24.59375 57.722656L18.167969 67.449219C17.953125 67.746094 17.921875 68.136719 18.082031 68.464844C18.238281 68.796875 18.566406 69.011719 18.933594 69.027344C19.296875 69.046875 19.644531 68.863281 19.832031 68.550781L26.347656 58.699219C30.164063 60.660156 34.453125 61.820313 39 61.96875L39 70C38.996094 70.359375 39.183594 70.695313 39.496094 70.878906C39.808594 71.058594 40.191406 71.058594 40.503906 70.878906C40.816406 70.695313 41.003906 70.359375 41 70L41 61.96875C45.546875 61.820313 49.832031 60.660156 53.640625 58.703125L60.167969 68.550781C60.472656 69.011719 61.09375 69.140625 61.554688 68.835938C62.011719 68.527344 62.140625 67.90625 61.832031 67.449219L55.394531 57.730469C62.8125 53.261719 68.136719 45.664063 69.5625 36.765625C70.90625 36.46875 72 35.425781 72 34C72 32.355469 70.644531 31 69 31 Z M 11 33L69 33C69.566406 33 70 33.433594 70 34C70 34.566406 69.566406 35 69 35L67.847656 35L67.730469 35.863281C65.890625 49.175781 54.710938 59.496094 41 59.976563L41 55C41.003906 54.730469 40.898438 54.46875 40.707031 54.277344C40.515625 54.085938 40.253906 53.980469 39.984375 53.984375C39.433594 53.996094 38.992188 54.449219 39 55L39 59.976563C25.289063 59.496094 14.109375 49.175781 12.269531 35.863281L12.152344 35L11 35C10.433594 35 10 34.566406 10 34C10 33.433594 10.433594 33 11 33 Z M 14 35C13.449219 35 13 35.449219 13 36C13 36.550781 13.449219 37 14 37C14.550781 37 15 36.550781 15 36C15 35.449219 14.550781 35 14 35 Z M 18 35C17.449219 35 17 35.449219 17 36C17 36.550781 17.449219 37 18 37C18.550781 37 19 36.550781 19 36C19 35.449219 18.550781 35 18 35 Z M 22 35C21.449219 35 21 35.449219 21 36C21 36.550781 21.449219 37 22 37C22.550781 37 23 36.550781 23 36C23 35.449219 22.550781 35 22 35 Z M 26 35C25.449219 35 25 35.449219 25 36C25 36.550781 25.449219 37 26 37C26.550781 37 27 36.550781 27 36C27 35.449219 26.550781 35 26 35 Z M 30 35C29.449219 35 29 35.449219 29 36C29 36.550781 29.449219 37 30 37C30.550781 37 31 36.550781 31 36C31 35.449219 30.550781 35 30 35 Z M 34 35C33.449219 35 33 35.449219 33 36C33 36.550781 33.449219 37 34 37C34.550781 37 35 36.550781 35 36C35 35.449219 34.550781 35 34 35 Z M 38 35C37.449219 35 37 35.449219 37 36C37 36.550781 37.449219 37 38 37C38.550781 37 39 36.550781 39 36C39 35.449219 38.550781 35 38 35 Z M 42 35C41.449219 35 41 35.449219 41 36C41 36.550781 41.449219 37 42 37C42.550781 37 43 36.550781 43 36C43 35.449219 42.550781 35 42 35 Z M 46 35C45.449219 35 45 35.449219 45 36C45 36.550781 45.449219 37 46 37C46.550781 37 47 36.550781 47 36C47 35.449219 46.550781 35 46 35 Z M 50 35C49.449219 35 49 35.449219 49 36C49 36.550781 49.449219 37 50 37C50.550781 37 51 36.550781 51 36C51 35.449219 50.550781 35 50 35 Z M 54 35C53.449219 35 53 35.449219 53 36C53 36.550781 53.449219 37 54 37C54.550781 37 55 36.550781 55 36C55 35.449219 54.550781 35 54 35 Z M 58 35C57.449219 35 57 35.449219 57 36C57 36.550781 57.449219 37 58 37C58.550781 37 59 36.550781 59 36C59 35.449219 58.550781 35 58 35 Z M 62 35C61.449219 35 61 35.449219 61 36C61 36.550781 61.449219 37 62 37C62.550781 37 63 36.550781 63 36C63 35.449219 62.550781 35 62 35 Z M 66 35C65.449219 35 65 35.449219 65 36C65 36.550781 65.449219 37 66 37C66.550781 37 67 36.550781 67 36C67 35.449219 66.550781 35 66 35Z" fill="#5B5B5B" />
</svg>