<svg xmlns="http://www.w3.org/2000/svg" viewBox="0 0 64 64">
  <path d="M38 4C29.178 4 22 11.178 22 20C22 28.822 29.178 36 38 36C46.822 36 54 28.822 54 20C54 11.178 46.822 4 38 4 z M 38 6C45.72 6 52 12.28 52 20C52 27.72 45.72 34 38 34C30.28 34 24 27.72 24 20C24 12.28 30.28 6 38 6 z M 38 11C37.447 11 37 11.448 37 12L37 13C34.794 13 33 14.794 33 17C33 19.206 34.794 21 37 21L39 21C40.103 21 41 21.897 41 23C41 24.103 40.103 25 39 25L39 23C39 22.448 38.553 22 38 22C37.447 22 37 22.448 37 23L37 25C35.897 25 35 24.103 35 23C35 22.448 34.553 22 34 22C33.447 22 33 22.448 33 23C33 25.206 34.794 27 37 27L37 28C37 28.552 37.447 29 38 29C38.553 29 39 28.552 39 28L39 27C41.206 27 43 25.206 43 23C43 20.794 41.206 19 39 19L39 17C39 16.448 38.553 16 38 16C37.447 16 37 16.448 37 17L37 19C35.897 19 35 18.103 35 17C35 15.897 35.897 15 37 15L39 15C40.103 15 41 15.897 41 17C41 17.552 41.447 18 42 18C42.553 18 43 17.552 43 17C43 14.794 41.206 13 39 13L39 12C39 11.448 38.553 11 38 11 z M 18.294922 36.322266C17.691125 36.308609 17.085719 36.336953 16.480469 36.408203L4.6503906 37.798828C3.1393906 37.976828 2 39.257297 2 40.779297L2 53.439453C2 54.369453 2.4202969 55.231687 3.1542969 55.804688C3.8872969 56.376688 4.8245625 56.574609 5.7265625 56.349609L12.289062 54.710938C13.962063 54.294938 15.724047 54.505594 17.248047 55.308594L29.835938 61.9375C31.147938 62.6285 32.586344 62.974609 34.027344 62.974609C35.449344 62.974609 36.872875 62.638844 38.171875 61.964844L59.474609 50.917969C61.032609 50.109969 61.998047 48.517859 61.998047 46.755859C61.999047 45.296859 61.337594 43.947688 60.183594 43.054688C59.029594 42.160688 57.555531 41.860562 56.144531 42.226562L42.736328 45.701172C42.472328 44.920172 42.017297 44.208672 41.404297 43.638672C40.391297 42.696672 39.024625 42.213547 37.640625 42.310547L35.449219 42.46875C34.591219 42.53275 33.733031 42.369906 32.957031 42.003906L23.544922 37.5625C21.893422 36.78325 20.106313 36.363234 18.294922 36.322266 z M 18.25 38.322266C19.783 38.357422 21.295359 38.711844 22.693359 39.371094L32.105469 43.8125C33.191469 44.3245 34.39475 44.547844 35.59375 44.464844L37.785156 44.306641C38.626156 44.248641 39.427922 44.529516 40.044922 45.103516C40.660922 45.676516 41 46.456828 41 47.298828L41 47.705078C41 48.098078 40.769156 48.456187 40.410156 48.617188L37.458984 49.943359C35.243984 50.938359 32.679781 50.990844 30.425781 50.089844L25.382812 48.070312C24.867812 47.864312 24.287031 48.114906 24.082031 48.628906C23.876031 49.141906 24.125672 49.722734 24.638672 49.927734L29.683594 51.947266C32.439594 53.051266 35.572297 52.984578 38.279297 51.767578L41.228516 50.441406C42.304516 49.958406 43 48.884078 43 47.705078L56.646484 44.160156C57.456484 43.952156 58.297984 44.125719 58.958984 44.636719C59.619984 45.147719 60 45.920672 60 46.763672C60 47.768672 59.446687 48.679578 58.554688 49.142578L37.251953 60.1875C35.217953 61.2405 32.793578 61.234969 30.767578 60.167969L18.179688 53.539062C16.875688 52.852063 15.438281 52.501953 13.988281 52.501953C13.258281 52.501953 12.526641 52.591484 11.806641 52.771484L5.2421875 54.410156C4.9421875 54.485156 4.6307187 54.419516 4.3867188 54.228516C4.1407187 54.037516 4 53.749453 4 53.439453L4 40.779297C4 40.272297 4.3798125 39.844156 4.8828125 39.785156L16.714844 38.394531C17.227344 38.334781 17.739 38.310547 18.25 38.322266 z M 7 41C6.448 41 6 41.448 6 42C6 42.552 6.448 43 7 43L9 43C9.552 43 10 42.552 10 42C10 41.448 9.552 41 9 41L7 41 z M 7 46C6.448 46 6 46.448 6 47C6 47.552 6.448 48 7 48L9 48C9.552 48 10 47.552 10 47C10 46.448 9.552 46 9 46L7 46 z M 7 51C6.448 51 6 51.448 6 52C6 52.552 6.448 53 7 53L9 53C9.552 53 10 52.552 10 52C10 51.448 9.552 51 9 51L7 51 z" fill="#5B5B5B" />
</svg>